<svg xmlns="http://www.w3.org/2000/svg" width="42.93" height="80.472"><path d="M8.352 3.726c.414-1.152.522-1.494.864-2.7h7.2a.435.435 0 00.5-.45.431.431 0 00-.5-.432H.522C.396.144 0 .144 0 .576a.442.442 0 00.522.45H8.19a19.715 19.715 0 01-.81 2.7H2.664c-1.35 0-1.818.468-1.818 1.818v8.244c0 1.368.5 1.8 1.818 1.8H14.22c1.368 0 1.818-.468 1.818-1.8V5.544c0-1.386-.486-1.818-1.818-1.818zm-3.4 10.962h-2.18c-.648 0-.936-.324-.936-.954v-8.19c0-.648.288-.936.936-.936H4.95zm.954-7.362V4.608h5.164v2.718zm0 3.618V8.172h5.164v2.772zm5.166 3.744H5.904v-2.88h5.166zm3.038-10.08c.666 0 .936.306.936.936v8.19c0 .648-.288.954-.936.954h-2.07V4.608zm18.612 3.87a11.215 11.215 0 005.188 5.454 19.775 19.775 0 004.41 1.782.561.561 0 00.54-.576c0-.342-.252-.414-.54-.486a19.714 19.714 0 01-5.328-2.448 28.445 28.445 0 002.988-2.07c.72-.558.774-.666.774-.864a.6.6 0 00-.558-.522c-.162 0-.18.018-.7.468a28.127 28.127 0 01-3.294 2.394 8.08 8.08 0 01-2.376-3.132h8.6c.216 0 .5-.036.5-.432 0-.432-.324-.45-.5-.45h-12.69V5.76h10.548c.4 0 .5-.234.5-.432 0-.4-.414-.4-.576-.4H29.736v-1.58h10.53c.414 0 .5-.216.5-.432 0-.162-.054-.414-.5-.414h-10.53v-.684a.823.823 0 01.936-.936h10.17c.126 0 .522 0 .522-.432a.442.442 0 00-.522-.45H30.528C29.16 0 28.71.468 28.71 1.818v5.778h-2c-.18 0-.522.018-.522.45s.4.432.522.432h2v6.066c-.324.036-1.746.108-2 .144a.385.385 0 00-.36.414c0 .072 0 .558.486.558a64.688 64.688 0 007.974-.918c.846-.144 1.008-.18 1.008-.63a.347.347 0 00-.342-.4c-.108 0-1.26.2-1.494.234-1.4.216-2.826.36-4.248.5V8.478z"/><path d="M21 33.472c8.837 0 16 10.521 16 23.5s-7.163 23.5-16 23.5-16-10.521-16-23.5 7.163-23.5 16-23.5z" fill="#e7e7e7"/></svg>