<svg xmlns="http://www.w3.org/2000/svg" width="68.76" height="81.282"><path d="M1.476 1.566a.458.458 0 00-.54.486.458.458 0 00.54.486h13.806a.446.446 0 00.522-.486.452.452 0 00-.522-.486zm.9 6.264a.446.446 0 00-.522.486.446.446 0 00.522.486h11.97c.162 0 .54 0 .54-.486a.458.458 0 00-.54-.486zM.54 14.508c-.162.018-.54.018-.54.5s.378.486.54.486h15.57a.446.446 0 00.522-.486.467.467 0 00-.522-.5zM32.454 1.35c.414-.486.558-.684.558-.918 0-.324-.36-.432-.558-.432a.614.614 0 00-.558.36 13.1 13.1 0 01-5.2 4.122c-.252.108-.414.18-.414.45a.509.509 0 00.486.54 12.936 12.936 0 004.93-3.29h5.112c.144 0 .45 0 .45.306a.836.836 0 01-.216.486 16.666 16.666 0 01-1.4 1.584h-5.62c-1.368 0-1.818.468-1.818 1.818v2.916c0 2.034 0 4.446-1.746 6.408-.144.162-.252.27-.252.45a.629.629 0 00.63.54c.216 0 .324-.09.576-.414a8.446 8.446 0 001.638-4.122H40.59v2.428c0 .936-.63.936-1.026.936-.342 0-1.98-.036-2.358-.036-.18 0-.558 0-.558.468 0 .234.072.594.54.594h2.322c1.35 0 2.052-.18 2.052-1.818V6.372c0-1.386-.468-1.818-1.8-1.818h-2.826a9.022 9.022 0 001.008-1.116 1.848 1.848 0 00.472-1.116c0-.972-.864-.972-1.35-.972zm-3.276 7.416h5.112v2.516h-5.166c.054-.72.054-1.278.054-1.8zm6.048 0h5.364v2.516h-5.364zm-.936-.828h-5.112V6.372c0-.648.288-.936.936-.936h4.176zm5.364-2.5c.666 0 .936.306.936.936v1.564h-5.364v-2.5zm20.322-3.836h1.206c.216 0 .522-.036.522-.486s-.342-.468-.522-.468h-8.066a.449.449 0 00-.522.486c0 .468.378.468.522.468h1.422v5h-1.722c-.144 0-.522 0-.522.468a.447.447 0 00.522.468h1.728v.594c0 3.8-.9 5.9-2.052 7.452a.581.581 0 00-.18.4.629.629 0 00.63.576c.306 0 .54-.378.864-.936a14.6 14.6 0 001.728-7.506v-.576h3.456v8.73c0 .216.018.522.486.522a.448.448 0 00.5-.522v-8.73h1.44c.234 0 .522-.054.522-.468 0-.45-.342-.468-.522-.468h-1.44zm-.99 5H55.53v-5h3.456zm8.658-5.92a.576.576 0 00-.54-.558c-.2 0-.306.144-.432.288a14.012 14.012 0 01-4.968 3.57c-.2.09-.36.162-.36.4a.6.6 0 00.5.594 12.012 12.012 0 003.2-1.8 10.306 10.306 0 002.6-2.494zm.45 5.04a.554.554 0 00-.522-.522.59.59 0 00-.432.252 16.479 16.479 0 01-5.85 4.266c-.216.09-.36.18-.36.414a.574.574 0 00.486.594 14.156 14.156 0 003.654-2.052 9.972 9.972 0 003.024-2.95zm.666 5.13a.547.547 0 00-.54-.486c-.18 0-.288.108-.432.324a13.134 13.134 0 01-6.552 4.932c-.18.072-.414.162-.414.432 0 .18.162.612.522.612a9 9 0 002.178-.918 15.934 15.934 0 005.094-4.5.633.633 0 00.144-.394z"/><path d="M34.5 81.282l-26.5-47h53z" fill="#918235"/></svg>