<svg xmlns="http://www.w3.org/2000/svg" width="42.804" height="81.156"><g transform="translate(-742 -3194.844)"><path d="M749.758 3198.174a.504.504 0 10-1.008 0v5.126a10.641 10.641 0 01-.216 2.5 38.3 38.3 0 01-4.212.936v-8.58c0-1.008.216-1.044 1.44-1.224.9-.144 2.412-.468 3.6-.792.774-.2 1.026-.27 1.026-.63a.565.565 0 00-.5-.576c-.144 0-1.062.324-1.26.378a25.613 25.613 0 01-3.726.774c-1.516.252-1.552.914-1.552 2.014v8.8c-.162.036-.864.126-1.008.162a.42.42 0 00-.342.468.485.485 0 00.486.522 45.393 45.393 0 005.742-1.224c-.972 2.232-3.438 3.114-4.932 3.474-.234.054-.486.126-.486.432 0 .216.18.594.5.594a9.51 9.51 0 003.618-1.494c2.052-1.35 2.826-3.258 2.826-6.552zm1.71 12.852c0 .216.036.5.5.5.486 0 .5-.306.5-.5v-13.266c0-.63.288-.954.936-.954h2.816a.828.828 0 01.936.954v9.126c0 .63-.414.684-.756.684-.288 0-1.674-.036-1.98-.036-.2 0-.522 0-.522.45 0 .576.468.576.774.576a11.259 11.259 0 002.79-.09c.648-.216.684-.9.684-1.368v-9.378c0-1.368-.486-1.8-1.8-1.8h-3.06c-1.368 0-1.818.468-1.818 1.8zm2.61-11.9c-.144 0-.486.108-.486.414 0 .09.27.756.414 1.134.324.792.666 1.656.9 2.43.288.99.306 1.062.612 1.062.162 0 .54-.09.54-.45a15.887 15.887 0 00-1.188-3.472c-.432-1.044-.54-1.116-.792-1.116zm-8.118.378c-.252 0-.54.144-.54.432a10.708 10.708 0 00.36 1.026 18.289 18.289 0 01.864 2.754c.036.162.108.468.468.468.2 0 .594-.108.594-.5a18.671 18.671 0 00-1.224-3.584c-.198-.45-.252-.594-.522-.594zm30.06-3.184h1.206c.216 0 .522-.036.522-.486s-.342-.468-.522-.468h-8.064a.449.449 0 00-.522.486c0 .468.378.468.522.468h1.422v5h-1.728c-.144 0-.522 0-.522.468a.447.447 0 00.522.468h1.728v.594c0 3.8-.9 5.9-2.052 7.452a.581.581 0 00-.18.4.629.629 0 00.63.576c.306 0 .54-.378.864-.936a14.6 14.6 0 001.728-7.506v-.576h3.456v8.73c0 .216.018.522.486.522a.448.448 0 00.5-.522v-8.73h1.44c.234 0 .522-.054.522-.468 0-.45-.342-.468-.522-.468h-1.44zm-.99 5h-3.456v-5h3.456zm8.658-5.92a.576.576 0 00-.54-.558c-.2 0-.306.144-.432.288a14.012 14.012 0 01-4.968 3.57c-.2.09-.36.162-.36.4a.6.6 0 00.5.594 12.012 12.012 0 003.2-1.8 10.306 10.306 0 002.6-2.494zm.45 5.04a.554.554 0 00-.522-.522.59.59 0 00-.432.252 16.479 16.479 0 01-5.85 4.266c-.216.09-.36.18-.36.414a.574.574 0 00.486.594 14.156 14.156 0 003.65-2.05 9.972 9.972 0 003.028-2.952zm.666 5.13a.547.547 0 00-.54-.486c-.18 0-.288.108-.432.324a13.134 13.134 0 01-6.552 4.932c-.18.072-.414.162-.414.432 0 .18.162.612.522.612a9 9 0 002.178-.918 15.934 15.934 0 005.094-4.5.633.633 0 00.144-.394z"/><ellipse cx="20" cy="23.5" rx="20" ry="23.5" transform="translate(743 3229)" fill="#e7e7e7"/></g></svg>