<svg xmlns="http://www.w3.org/2000/svg" width="47" height="81.156"><path d="M9.388 3.204V.576c0-.2-.018-.522-.522-.522a.454.454 0 00-.5.522v2.628h-5.44c-.144 0-.522 0-.522.468a.447.447 0 00.522.468h5.418a22.239 22.239 0 01-.5 4.428 17.045 17.045 0 00-3.496-2.012.582.582 0 00-.522.558c0 .252.2.36.378.45a28.219 28.219 0 013.348 2.052 10.656 10.656 0 01-5.058 5.778c-.18.108-.36.216-.36.45a.613.613 0 00.558.63 7.727 7.727 0 002.268-1.4 10.931 10.931 0 003.456-4.824 21.99 21.99 0 012.52 2.25.657.657 0 00.468.288.6.6 0 00.54-.576c0-.18-.09-.306-.288-.5A27.6 27.6 0 008.74 9.216a21.648 21.648 0 00.63-5.076h3.6a.816.816 0 01.936.936v9.342c0 .612.036 1.422.846 1.692.36.126.45.126 2.07.126.828 0 1.512-.054 1.71-1.116a21.64 21.64 0 00.252-3.024c0-.288-.036-.684-.576-.684-.468 0-.486.342-.486.612a18.961 18.961 0 01-.18 2.754c-.162.5-.27.5-1.548.5-.432 0-1.062 0-1.062-.936v-9.32c0-1.386-.5-1.818-1.818-1.818zM36.01 1.476h1.206c.216 0 .522-.036.522-.486s-.342-.468-.522-.468h-8.064a.449.449 0 00-.522.486c0 .468.378.468.522.468h1.422v5h-1.728c-.144 0-.522 0-.522.468a.447.447 0 00.522.468h1.728v.594c0 3.8-.9 5.9-2.052 7.452a.581.581 0 00-.18.4.629.629 0 00.63.576c.306 0 .54-.378.864-.936a14.6 14.6 0 001.728-7.506v-.576h3.456v8.73c0 .216.018.522.486.522a.448.448 0 00.5-.522v-8.73h1.44c.234 0 .522-.054.522-.468 0-.45-.342-.468-.522-.468h-1.44zm-.99 5h-3.456v-5h3.456zm8.658-5.92a.576.576 0 00-.54-.558c-.2 0-.306.144-.432.288a14.012 14.012 0 01-4.968 3.57c-.2.09-.36.162-.36.4a.6.6 0 00.5.594 12.012 12.012 0 003.2-1.8 10.306 10.306 0 002.6-2.494zm.45 5.04a.554.554 0 00-.522-.522.59.59 0 00-.432.252 16.479 16.479 0 01-5.85 4.266c-.216.09-.36.18-.36.414a.574.574 0 00.486.594 14.156 14.156 0 003.65-2.05 9.972 9.972 0 003.028-2.952zm.666 5.13a.547.547 0 00-.54-.486c-.18 0-.288.108-.432.324a13.134 13.134 0 01-6.552 4.932c-.18.072-.414.162-.414.432 0 .18.162.612.522.612a9 9 0 002.178-.918 15.934 15.934 0 005.094-4.5.633.633 0 00.144-.394z"/><path d="M23.5 34.156A23.5 23.5 0 110 57.656a23.5 23.5 0 0123.5-23.5z" fill="#e7e7e7"/></svg>