<svg xmlns="http://www.w3.org/2000/svg" width="68.058" height="81.282"><path d="M15.228 3.258c0-1.71-.594-2.268-2.286-2.268H2.286C.558.99 0 1.566 0 3.258v10.4c0 1.71.594 2.268 2.286 2.268h10.656c1.728 0 2.286-.594 2.286-2.268zm-10.62 2.88c0 3.06-1.332 4.482-2.682 5.274-.2.108-.342.216-.342.45a.575.575 0 00.54.594c.648 0 3.474-2.16 3.474-6.246V1.926H8.73v8.01c0 1.206.432 1.494 1.548 1.494.342 0 2.052 0 2.214-.054.612-.2.99-.918.99-2.592a.478.478 0 00-.522-.54c-.45 0-.45.216-.486.972-.036.9-.162 1.242-.594 1.242-.468 0-1.26 0-1.566-.018-.45-.018-.612-.288-.612-.684v-7.83h3.258c.9 0 1.242.45 1.242 1.26v10.53c0 .828-.36 1.26-1.242 1.26H2.268c-.9 0-1.242-.432-1.242-1.26V3.182c0-.828.36-1.26 1.242-1.26h2.34zM31.752 1.35c.414-.486.558-.684.558-.918 0-.324-.36-.432-.558-.432a.614.614 0 00-.558.36 13.1 13.1 0 01-5.2 4.122c-.252.108-.414.18-.414.45a.509.509 0 00.486.54 12.936 12.936 0 004.93-3.29h5.112c.144 0 .45 0 .45.306a.836.836 0 01-.216.486 16.666 16.666 0 01-1.4 1.584h-5.62c-1.368 0-1.818.468-1.818 1.818v2.916c0 2.034 0 4.446-1.746 6.408-.144.162-.252.27-.252.45a.629.629 0 00.63.54c.216 0 .324-.09.576-.414a8.446 8.446 0 001.638-4.122h11.538v2.428c0 .936-.63.936-1.026.936-.342 0-1.98-.036-2.358-.036-.18 0-.558 0-.558.468 0 .234.072.594.54.594h2.322c1.35 0 2.052-.18 2.052-1.818V6.372c0-1.386-.468-1.818-1.8-1.818h-2.826a9.022 9.022 0 001.008-1.116 1.848 1.848 0 00.472-1.116c0-.972-.864-.972-1.35-.972zm-3.276 7.416h5.112v2.516h-5.166c.054-.72.054-1.278.054-1.8zm6.048 0h5.364v2.516h-5.364zm-.936-.828h-5.112V6.372c0-.648.288-.936.936-.936h4.176zm5.364-2.5c.666 0 .936.306.936.936v1.564h-5.364v-2.5zm20.322-3.836h1.206c.216 0 .522-.036.522-.486S60.66.648 60.48.648h-8.066a.449.449 0 00-.522.486c0 .468.378.468.522.468h1.422v5h-1.722c-.144 0-.522 0-.522.468a.447.447 0 00.522.468h1.728v.594c0 3.8-.9 5.9-2.052 7.452a.581.581 0 00-.18.4.629.629 0 00.63.576c.306 0 .54-.378.864-.936a14.6 14.6 0 001.728-7.506v-.576h3.456v8.73c0 .216.018.522.486.522a.448.448 0 00.5-.522v-8.73h1.44c.234 0 .522-.054.522-.468 0-.45-.342-.468-.522-.468h-1.44zm-.99 5h-3.456v-5h3.456zm8.658-5.92a.576.576 0 00-.54-.558c-.2 0-.306.144-.432.288a14.012 14.012 0 01-4.968 3.57c-.2.09-.36.162-.36.4a.6.6 0 00.5.594 12.012 12.012 0 003.2-1.8 10.306 10.306 0 002.6-2.494zm.45 5.04a.554.554 0 00-.522-.522.59.59 0 00-.432.252 16.479 16.479 0 01-5.85 4.266c-.216.09-.36.18-.36.414a.574.574 0 00.486.594 14.156 14.156 0 003.654-2.052 9.972 9.972 0 003.024-2.95zm.666 5.13a.547.547 0 00-.54-.486c-.18 0-.288.108-.432.324a13.134 13.134 0 01-6.552 4.932c-.18.072-.414.162-.414.432 0 .18.162.612.522.612a9 9 0 002.178-.918 15.934 15.934 0 005.094-4.5.633.633 0 00.144-.394z"/><path d="M10 34.282h47v47H10z" fill="#918235"/></svg>