<svg xmlns="http://www.w3.org/2000/svg" width="1920" height="603.356" viewBox="0 0 1920 603.356"><defs><style>.a{fill:#f7f8fa;}.b,.c,.f{fill:none;}.b,.c{stroke:#fff;}.b,.d{opacity:0.3;}.d{fill:#fff;}.e{stroke:none;}</style></defs><g transform="translate(0 -293.5)"><path class="a" d="M1.6,6.66V20H7.56V18.08H3.64V6.66Zm35.24,0H29.48V20h7.36V18.08H31.52v-4.2h5.16V11.96H31.52V8.58h5.32Zm29.4,1.92V6.66H58.08V8.58h3.06V20h2.04V8.58ZM115.48,20h2.04V14.24l4.38-7.58h-2.32L116.5,12l-3.08-5.34H111.1l4.38,7.58ZM149.2,6.42a6.767,6.767,0,0,0-6.94,6.92,6.94,6.94,0,0,0,13.88,0A6.767,6.767,0,0,0,149.2,6.42Zm0,11.96a4.774,4.774,0,0,1-4.9-5.04,4.9,4.9,0,1,1,9.8,0A4.774,4.774,0,0,1,149.2,18.38ZM178.7,6.66v8.58a4.937,4.937,0,0,0,1.24,3.46,5.168,5.168,0,0,0,7.4,0,4.937,4.937,0,0,0,1.24-3.46V6.66h-2.04V14.7a4.662,4.662,0,0,1-.42,2.3,2.918,2.918,0,0,1-4.96,0,4.662,4.662,0,0,1-.42-2.3V6.66Zm33.08,0V20h2.04V14.54h.36L218,20h2.46l-4.16-5.7a3.659,3.659,0,0,0,2.96-3.72,3.722,3.722,0,0,0-1.58-3.14,5.974,5.974,0,0,0-3.52-.78Zm2.04,1.88h.7c1,0,2.78.18,2.78,2.06,0,2.12-2.28,2.18-2.84,2.18h-.64Zm55.34-1.88h-2.04V20h2.04V13.86h5.72V20h2.04V6.66h-2.04v5.28h-5.72ZM309.36,20h2.2L305.24,5.88,298.6,20h2.2l1.46-3.22h5.7Zm-6.26-5.14,2.06-4.52,1.98,4.52Zm30.14-8.2V20h2.04V6.66Zm25.24,0V20h2.04V14.54h.36L364.7,20h2.46L363,14.3a3.659,3.659,0,0,0,2.96-3.72,3.722,3.722,0,0,0-1.58-3.14,5.974,5.974,0,0,0-3.52-.78Zm2.04,1.88h.7c1,0,2.78.18,2.78,2.06,0,2.12-2.28,2.18-2.84,2.18h-.64ZM1.6,60.06V73.4H4.36a7.655,7.655,0,0,0,4.88-1.28,6.361,6.361,0,0,0,2.68-5.38,6.6,6.6,0,0,0-2.56-5.38,7.769,7.769,0,0,0-4.96-1.3Zm2.04,1.92h.88a5.976,5.976,0,0,1,3.56.92,4.753,4.753,0,0,1,1.8,3.84,4.7,4.7,0,0,1-1.82,3.8,5.776,5.776,0,0,1-3.54.94H3.64Zm37.14-2.16a6.92,6.92,0,1,0,6.94,6.92A6.767,6.767,0,0,0,40.78,59.82Zm0,11.96a5.042,5.042,0,1,1,4.9-5.04A4.774,4.774,0,0,1,40.78,71.78Zm60.92-9.8V60.06H93.54v1.92H96.6V73.4h2.04V61.98Zm23.84-1.92H123.5V73.4h2.04V67.26h5.72V73.4h2.04V60.06h-2.04v5.28h-5.72Zm38.32,0H156.5V73.4h7.36V71.48h-5.32v-4.2h5.16V65.36h-5.16V61.98h5.32ZM8.36,115.38v-1.92H.2v1.92H3.26V126.8H5.3V115.38ZM38.6,126.8h2.2l-6.32-14.12L27.84,126.8h2.2l1.46-3.22h5.7Zm-6.26-5.14,2.06-4.52,1.98,4.52Zm30.14-8.2V126.8h5.96v-1.92H64.52V113.46Zm29.92,0H90.36V126.8H92.4v-5.52l.4-.4,4.76,5.92h2.72l-6.06-7.3,6.02-6.04H97.56l-5.16,5.32Zm29.68,0V126.8h2.04V113.46Zm27.28,13.34v-9.32l9.68,10.14V113.46H157v9.24l-9.68-10.14V126.8Zm39.78-5.06h3.32a3.577,3.577,0,0,1-1.12,2.26,4.008,4.008,0,0,1-2.98,1.18,4.332,4.332,0,0,1-3.34-1.34,5.537,5.537,0,0,1,.04-7.36,4.813,4.813,0,0,1,3.52-1.38,4.494,4.494,0,0,1,2.36.58,5.437,5.437,0,0,1,1.64,1.52l1.62-1.14a6.064,6.064,0,0,0-2.16-2,7.217,7.217,0,0,0-3.48-.84,7.1,7.1,0,0,0-4.98,12.02,5.813,5.813,0,0,0,4.54,1.82,6.237,6.237,0,0,0,4.54-1.7,7.282,7.282,0,0,0,1.98-5.4v-.1h-5.5Zm27.66,4.1a1.2,1.2,0,1,0,1.2-1.2A1.2,1.2,0,0,0,216.8,125.84Z" transform="translate(1477 457)"/><g class="b" transform="translate(1427 293.5)"><circle class="e" cx="246.5" cy="246.5" r="246.5"/><circle class="f" cx="246.5" cy="246.5" r="246"/></g><path class="c" d="M1731.758,579.192c-2.278-1.436,0,317.459,0,317.459l18.742-41.73"/><rect class="d" width="1920" height="0.951" transform="translate(0 523.5)"/><path class="a" d="M93.94,0h-2.1A13.338,13.338,0,0,0,89.6-2.03a6.748,6.748,0,0,0-3.92-.91,15.242,15.242,0,0,0-4.55.77q-2.45.77-5.6,1.75a68.1,68.1,0,0,1-7.07,1.75,45.152,45.152,0,0,1-8.68.77A47.177,47.177,0,0,1,42.63-1.12a46.555,46.555,0,0,1-15.75-10.5A60.613,60.613,0,0,1,15.4-27.86a48.522,48.522,0,0,1-4.62-21.7,53.753,53.753,0,0,1,3.78-20.02,53.779,53.779,0,0,1,10.5-16.8A50.509,50.509,0,0,1,40.88-97.93a46.21,46.21,0,0,1,19.88-4.27,31.882,31.882,0,0,1,7.7.84,48.49,48.49,0,0,1,6.02,1.89q2.66,1.05,4.9,1.89a12.329,12.329,0,0,0,4.34.84,6.7,6.7,0,0,0,3.99-.91,14.911,14.911,0,0,0,2.17-2.03h2.1v28H90.44a85,85,0,0,0-3.22-10.5,29.715,29.715,0,0,0-5.46-9.17,25.849,25.849,0,0,0-8.89-6.44,32.284,32.284,0,0,0-13.37-2.45,31.864,31.864,0,0,0-12.74,2.31,26.881,26.881,0,0,0-8.96,6.16,29.95,29.95,0,0,0-5.81,8.96A54.533,54.533,0,0,0,28.7-72.03a85.794,85.794,0,0,0-1.47,11.48q-.35,5.81-.35,10.99,0,14.7,2.38,24.36T35.91-9.94A22.867,22.867,0,0,0,46.2-2.1,37.877,37.877,0,0,0,59.5.14q9.38,0,15.12-2.66a25.64,25.64,0,0,0,9.24-6.93,30.474,30.474,0,0,0,5.32-9.66Q91-24.5,92.4-29.82h1.54Zm10.92-1.96h10.78V-58.1H104.86v-1.96H127.4v14.14h.28a28.506,28.506,0,0,1,1.82-4.76,20.784,20.784,0,0,1,3.5-5.11,19.934,19.934,0,0,1,5.39-4.13,16.026,16.026,0,0,1,7.63-1.68,13.783,13.783,0,0,1,5.6,1.05,12.1,12.1,0,0,1,3.92,2.66,9.779,9.779,0,0,1,2.24,3.71,13.213,13.213,0,0,1,.7,4.2q0,4.62-2.1,6.16a8.063,8.063,0,0,1-4.9,1.54q-6.16,0-6.16-3.92a6.069,6.069,0,0,1,.28-2.03q.28-.77.63-1.54a12.615,12.615,0,0,0,.63-1.75,10.753,10.753,0,0,0,.28-2.8q0-4.48-4.9-4.48a8.676,8.676,0,0,0-4.76,1.68,17.551,17.551,0,0,0-4.69,4.9,30.789,30.789,0,0,0-3.64,7.77,33.912,33.912,0,0,0-1.47,10.43V-1.96h12.18V0h-35ZM207.34-36.68a25.849,25.849,0,0,0,.28-3.64v-3.5a28.238,28.238,0,0,0-.91-7.84,12.748,12.748,0,0,0-2.52-4.9,8.9,8.9,0,0,0-3.92-2.59,15.621,15.621,0,0,0-4.97-.77,14.778,14.778,0,0,0-7.84,1.89,13.923,13.923,0,0,0-4.9,5.11,26.322,26.322,0,0,0-2.73,7.42,58.262,58.262,0,0,0-1.19,8.82ZM178.5-34.72q0,1.4-.07,2.87t-.07,3.71a87.563,87.563,0,0,0,.56,9.66,29.017,29.017,0,0,0,2.45,9.1,16.961,16.961,0,0,0,5.6,6.72Q190.68,0,196.84,0a24.538,24.538,0,0,0,10.15-1.82,18.68,18.68,0,0,0,6.3-4.41,19.1,19.1,0,0,0,3.43-5.25q1.12-2.66,1.68-4.34l2.1.42a40.213,40.213,0,0,1-1.61,4.41,20.283,20.283,0,0,1-3.78,5.74,22.92,22.92,0,0,1-7,5.04A25.9,25.9,0,0,1,196.7,1.96,36.468,36.468,0,0,1,183.75-.28a29.6,29.6,0,0,1-10.29-6.44,29.1,29.1,0,0,1-6.72-10.01,33.869,33.869,0,0,1-2.38-12.95,30.522,30.522,0,0,1,2.45-11.97,33.83,33.83,0,0,1,6.72-10.29,33.67,33.67,0,0,1,10.01-7.21,28.318,28.318,0,0,1,12.32-2.73,28.235,28.235,0,0,1,8.4,1.4,24.735,24.735,0,0,1,8.33,4.55,25,25,0,0,1,6.44,8.33,28.652,28.652,0,0,1,2.59,12.88Zm91.98.42h-.28q-.28,1.82-4.62,3.64l-10.5,4.2a15.307,15.307,0,0,0-6.86,5.11,13.607,13.607,0,0,0-2.38,8.19,23.538,23.538,0,0,0,.42,4.34,11.123,11.123,0,0,0,1.54,3.99,8.546,8.546,0,0,0,3.15,2.87A10.813,10.813,0,0,0,256.2-.84a13.032,13.032,0,0,0,7.49-1.96,12.828,12.828,0,0,0,4.34-4.9,20.68,20.68,0,0,0,1.96-6.37,44.4,44.4,0,0,0,.49-6.23Zm24.5,32.76A19.182,19.182,0,0,1,290.64.91a16.027,16.027,0,0,1-6.16,1.05q-6.72,0-9.73-2.87a15.239,15.239,0,0,1-4.13-8.05h-.28q-.56,1.26-1.54,3.15a12.485,12.485,0,0,1-3.01,3.64A16.755,16.755,0,0,1,260.4.77a25.947,25.947,0,0,1-8.54,1.19A27.038,27.038,0,0,1,242.48.63a15.3,15.3,0,0,1-5.46-3.29,9.544,9.544,0,0,1-2.59-4.41,18.346,18.346,0,0,1-.63-4.55,13.933,13.933,0,0,1,1.96-7.84,14.516,14.516,0,0,1,5.11-4.69,33.812,33.812,0,0,1,7-2.87q3.85-1.12,7.77-2.38,4.62-1.54,7.63-2.66a13.522,13.522,0,0,0,4.69-2.73,8.377,8.377,0,0,0,2.31-4.06,27.815,27.815,0,0,0,.63-6.65,38.871,38.871,0,0,0-.42-6.02,12.758,12.758,0,0,0-1.54-4.55,7.152,7.152,0,0,0-3.22-2.87,13.4,13.4,0,0,0-5.6-.98,16.078,16.078,0,0,0-7.63,1.61,5.508,5.508,0,0,0-3.01,5.25,26.165,26.165,0,0,0,.42,4.69,21.27,21.27,0,0,1,.42,3.43,4.356,4.356,0,0,1-1.4,3.29,5.675,5.675,0,0,1-4.06,1.33q-4.62,0-5.74-1.68A7.682,7.682,0,0,1,238-46.34a12.981,12.981,0,0,1,1.4-5.88,14.813,14.813,0,0,1,4.13-4.97,20.544,20.544,0,0,1,6.86-3.43,32.4,32.4,0,0,1,9.45-1.26,31.241,31.241,0,0,1,10.78,1.61,18.645,18.645,0,0,1,7,4.34,15.765,15.765,0,0,1,3.78,6.16,23.08,23.08,0,0,1,1.12,7.21V-7.7q0,4.06,1.26,5.46a4.645,4.645,0,0,0,3.64,1.4,10.174,10.174,0,0,0,3.22-.56,11.817,11.817,0,0,0,3.22-1.68Zm2.8-58.52h10.78V-78.12q1.12.42,2.1.7a13.837,13.837,0,0,0,3.36.28,12.055,12.055,0,0,0,3.64-.49,9.135,9.135,0,0,0,2.94-1.61v19.18h19.88v1.96H320.6v45.78a21.751,21.751,0,0,0,.77,6.37,9.62,9.62,0,0,0,2.03,3.78,6.075,6.075,0,0,0,2.73,1.75A10.421,10.421,0,0,0,329,0a9.843,9.843,0,0,0,7.91-3.57,17.289,17.289,0,0,0,3.85-8.19l1.96.7A32.572,32.572,0,0,1,341.46-7a14.159,14.159,0,0,1-2.59,4.27A13.607,13.607,0,0,1,334.32.63a16.287,16.287,0,0,1-7,1.33q-10.5,0-14.63-4.06t-4.13-11.48V-58.1H297.78ZM391.3-36.68a25.847,25.847,0,0,0,.28-3.64v-3.5a28.238,28.238,0,0,0-.91-7.84,12.748,12.748,0,0,0-2.52-4.9,8.9,8.9,0,0,0-3.92-2.59,15.621,15.621,0,0,0-4.97-.77,14.778,14.778,0,0,0-7.84,1.89,13.923,13.923,0,0,0-4.9,5.11,26.322,26.322,0,0,0-2.73,7.42,58.266,58.266,0,0,0-1.19,8.82Zm-28.84,1.96q0,1.4-.07,2.87t-.07,3.71a87.559,87.559,0,0,0,.56,9.66,29.017,29.017,0,0,0,2.45,9.1,16.961,16.961,0,0,0,5.6,6.72Q374.64,0,380.8,0a24.538,24.538,0,0,0,10.15-1.82,18.68,18.68,0,0,0,6.3-4.41,19.1,19.1,0,0,0,3.43-5.25q1.12-2.66,1.68-4.34l2.1.42a40.208,40.208,0,0,1-1.61,4.41,20.283,20.283,0,0,1-3.78,5.74,22.919,22.919,0,0,1-7,5.04,25.9,25.9,0,0,1-11.41,2.17A36.468,36.468,0,0,1,367.71-.28a29.6,29.6,0,0,1-10.29-6.44,29.1,29.1,0,0,1-6.72-10.01,33.869,33.869,0,0,1-2.38-12.95,30.522,30.522,0,0,1,2.45-11.97,33.83,33.83,0,0,1,6.72-10.29,33.669,33.669,0,0,1,10.01-7.21,28.318,28.318,0,0,1,12.32-2.73,28.235,28.235,0,0,1,8.4,1.4,24.735,24.735,0,0,1,8.33,4.55,25,25,0,0,1,6.44,8.33,28.652,28.652,0,0,1,2.59,12.88ZM544.88,0h-2.1a13.339,13.339,0,0,0-2.24-2.03,6.748,6.748,0,0,0-3.92-.91,15.242,15.242,0,0,0-4.55.77q-2.45.77-5.6,1.75a68.1,68.1,0,0,1-7.07,1.75,45.153,45.153,0,0,1-8.68.77,47.177,47.177,0,0,1-17.15-3.22,46.554,46.554,0,0,1-15.75-10.5,60.613,60.613,0,0,1-11.48-16.24,48.522,48.522,0,0,1-4.62-21.7,53.754,53.754,0,0,1,3.78-20.02A53.779,53.779,0,0,1,476-86.38a50.509,50.509,0,0,1,15.82-11.55,46.21,46.21,0,0,1,19.88-4.27,31.883,31.883,0,0,1,7.7.84,48.488,48.488,0,0,1,6.02,1.89q2.66,1.05,4.9,1.89a12.329,12.329,0,0,0,4.34.84,6.7,6.7,0,0,0,3.99-.91,14.91,14.91,0,0,0,2.17-2.03h2.1v28h-1.54a85.005,85.005,0,0,0-3.22-10.5,29.716,29.716,0,0,0-5.46-9.17,25.849,25.849,0,0,0-8.89-6.44,32.284,32.284,0,0,0-13.37-2.45,31.864,31.864,0,0,0-12.74,2.31,26.881,26.881,0,0,0-8.96,6.16,29.95,29.95,0,0,0-5.81,8.96,54.534,54.534,0,0,0-3.29,10.78,85.789,85.789,0,0,0-1.47,11.48q-.35,5.81-.35,10.99,0,14.7,2.38,24.36t6.65,15.26A22.867,22.867,0,0,0,497.14-2.1,37.877,37.877,0,0,0,510.44.14q9.38,0,15.12-2.66a25.64,25.64,0,0,0,9.24-6.93,30.475,30.475,0,0,0,5.32-9.66q1.82-5.39,3.22-10.71h1.54Zm27.44-29.96a64.848,64.848,0,0,0,1.54,15.82,24.331,24.331,0,0,0,4.06,9.03A11.7,11.7,0,0,0,583.8-.98a25.381,25.381,0,0,0,7.14.98,25.381,25.381,0,0,0,7.14-.98,11.7,11.7,0,0,0,5.88-4.13,24.331,24.331,0,0,0,4.06-9.03,64.849,64.849,0,0,0,1.54-15.82,74.242,74.242,0,0,0-1.12-14.07,26.375,26.375,0,0,0-3.43-9.24,13.236,13.236,0,0,0-5.81-5.11,20.385,20.385,0,0,0-8.26-1.54,20.385,20.385,0,0,0-8.26,1.54,13.236,13.236,0,0,0-5.81,5.11,26.375,26.375,0,0,0-3.43,9.24A74.242,74.242,0,0,0,572.32-29.96Zm-14,0a27.553,27.553,0,0,1,3.01-12.74,35.4,35.4,0,0,1,7.7-10.15,35.446,35.446,0,0,1,10.5-6.65,29.962,29.962,0,0,1,11.41-2.38,29.962,29.962,0,0,1,11.41,2.38,35.446,35.446,0,0,1,10.5,6.65,35.4,35.4,0,0,1,7.7,10.15,27.553,27.553,0,0,1,3.01,12.74,28.173,28.173,0,0,1-2.8,12.39,34.729,34.729,0,0,1-7.35,10.15A34.891,34.891,0,0,1,602.98-.56a30.288,30.288,0,0,1-12.04,2.52A30.288,30.288,0,0,1,578.9-.56a34.891,34.891,0,0,1-10.43-6.86,34.731,34.731,0,0,1-7.35-10.15A28.173,28.173,0,0,1,558.32-29.96Zm91.84,0a64.848,64.848,0,0,0,1.54,15.82,24.331,24.331,0,0,0,4.06,9.03,11.7,11.7,0,0,0,5.88,4.13,25.381,25.381,0,0,0,7.14.98,25.381,25.381,0,0,0,7.14-.98,11.7,11.7,0,0,0,5.88-4.13,24.331,24.331,0,0,0,4.06-9.03,64.849,64.849,0,0,0,1.54-15.82,74.242,74.242,0,0,0-1.12-14.07,26.375,26.375,0,0,0-3.43-9.24,13.236,13.236,0,0,0-5.81-5.11,20.385,20.385,0,0,0-8.26-1.54,20.385,20.385,0,0,0-8.26,1.54,13.236,13.236,0,0,0-5.81,5.11,26.375,26.375,0,0,0-3.43,9.24A74.242,74.242,0,0,0,650.16-29.96Zm-14,0a27.553,27.553,0,0,1,3.01-12.74,35.4,35.4,0,0,1,7.7-10.15,35.446,35.446,0,0,1,10.5-6.65,29.962,29.962,0,0,1,11.41-2.38,29.962,29.962,0,0,1,11.41,2.38,35.446,35.446,0,0,1,10.5,6.65,35.4,35.4,0,0,1,7.7,10.15,27.553,27.553,0,0,1,3.01,12.74,28.173,28.173,0,0,1-2.8,12.39,34.729,34.729,0,0,1-7.35,10.15A34.891,34.891,0,0,1,680.82-.56a30.288,30.288,0,0,1-12.04,2.52A30.288,30.288,0,0,1,656.74-.56a34.891,34.891,0,0,1-10.43-6.86,34.731,34.731,0,0,1-7.35-10.15A28.173,28.173,0,0,1,636.16-29.96Zm75.46,28H722.4V-98.98H711.62v-1.96h22.82V-1.96h10.78V0h-33.6Zm41.02,0h10.78V-58.1H752.64v-1.96h22.54v14.98h.28q.84-1.82,2.45-4.62a24.373,24.373,0,0,1,4.41-5.46,24.868,24.868,0,0,1,7-4.55,24.825,24.825,0,0,1,10.22-1.89q9.24,0,15.05,4.48t5.81,14.28V-1.96h10.78V0h-33.6V-1.96h10.78V-47.18a14.67,14.67,0,0,0-2.59-8.96q-2.59-3.5-8.05-3.5a19.4,19.4,0,0,0-8.54,1.96,22.437,22.437,0,0,0-7.14,5.46,25.87,25.87,0,0,0-4.83,8.26,29.8,29.8,0,0,0-1.75,10.36V-1.96h10.78V0h-33.6ZM883.96-36.68a25.842,25.842,0,0,0,.28-3.64v-3.5a28.239,28.239,0,0,0-.91-7.84,12.749,12.749,0,0,0-2.52-4.9,8.9,8.9,0,0,0-3.92-2.59,15.621,15.621,0,0,0-4.97-.77,14.778,14.778,0,0,0-7.84,1.89,13.923,13.923,0,0,0-4.9,5.11,26.321,26.321,0,0,0-2.73,7.42,58.258,58.258,0,0,0-1.19,8.82Zm-28.84,1.96q0,1.4-.07,2.87t-.07,3.71a87.559,87.559,0,0,0,.56,9.66,29.017,29.017,0,0,0,2.45,9.1,16.961,16.961,0,0,0,5.6,6.72Q867.3,0,873.46,0a24.538,24.538,0,0,0,10.15-1.82,18.68,18.68,0,0,0,6.3-4.41,19.1,19.1,0,0,0,3.43-5.25q1.12-2.66,1.68-4.34l2.1.42a40.2,40.2,0,0,1-1.61,4.41,20.283,20.283,0,0,1-3.78,5.74,22.919,22.919,0,0,1-7,5.04,25.9,25.9,0,0,1-11.41,2.17A36.468,36.468,0,0,1,860.37-.28a29.6,29.6,0,0,1-10.29-6.44,29.1,29.1,0,0,1-6.72-10.01,33.869,33.869,0,0,1-2.38-12.95,30.521,30.521,0,0,1,2.45-11.97,33.831,33.831,0,0,1,6.72-10.29,33.67,33.67,0,0,1,10.01-7.21,28.319,28.319,0,0,1,12.32-2.73,28.235,28.235,0,0,1,8.4,1.4,24.735,24.735,0,0,1,8.33,4.55,25,25,0,0,1,6.44,8.33,28.652,28.652,0,0,1,2.59,12.88Zm57.4,15.12h1.54a52.429,52.429,0,0,0,2.52,6.79,24.087,24.087,0,0,0,4.13,6.3,20.355,20.355,0,0,0,6.37,4.69A20.819,20.819,0,0,0,936.18,0a12.626,12.626,0,0,0,7.98-2.73q3.5-2.73,3.5-8.89,0-5.32-2.73-7.49a21.371,21.371,0,0,0-6.37-3.43l-10.92-3.78q-2.1-.7-4.55-1.75a16.5,16.5,0,0,1-4.55-2.94,14.338,14.338,0,0,1-3.43-4.83,18.447,18.447,0,0,1-1.33-7.56,17.261,17.261,0,0,1,1.54-7.28,18.827,18.827,0,0,1,4.2-5.88,18.777,18.777,0,0,1,6.37-3.92,22.619,22.619,0,0,1,8.05-1.4,20.443,20.443,0,0,1,4.97.49q1.89.49,3.29.98t2.52.98a6.6,6.6,0,0,0,2.66.49,2.444,2.444,0,0,0,2.24-1.12h1.54V-44.1h-1.54a60.171,60.171,0,0,0-2.24-5.95,23.781,23.781,0,0,0-3.01-5.11,12.208,12.208,0,0,0-4.34-3.5,13.777,13.777,0,0,0-6.09-1.26q-6.72,0-10.43,3.01a9.836,9.836,0,0,0-3.71,8.05,7.888,7.888,0,0,0,3.15,6.79,33.017,33.017,0,0,0,9.31,4.27l10.22,3.36a29.462,29.462,0,0,1,10.78,6.16,13.5,13.5,0,0,1,4.2,10.36,19.655,19.655,0,0,1-1.47,7.42,18,18,0,0,1-4.34,6.37,22.114,22.114,0,0,1-7,4.41,24.915,24.915,0,0,1-9.45,1.68,23.975,23.975,0,0,1-5.67-.63Q926.94.7,924.77,0t-3.99-1.33a10.332,10.332,0,0,0-3.36-.63,3.294,3.294,0,0,0-2.24.63A5.854,5.854,0,0,0,914.06,0h-1.54Zm59.64,0h1.54a52.429,52.429,0,0,0,2.52,6.79,24.087,24.087,0,0,0,4.13,6.3,20.355,20.355,0,0,0,6.37,4.69A20.819,20.819,0,0,0,995.82,0a12.626,12.626,0,0,0,7.98-2.73q3.5-2.73,3.5-8.89,0-5.32-2.73-7.49a21.371,21.371,0,0,0-6.37-3.43l-10.92-3.78q-2.1-.7-4.55-1.75a16.5,16.5,0,0,1-4.55-2.94,14.338,14.338,0,0,1-3.43-4.83,18.447,18.447,0,0,1-1.33-7.56,17.261,17.261,0,0,1,1.54-7.28,18.827,18.827,0,0,1,4.2-5.88,18.777,18.777,0,0,1,6.37-3.92,22.619,22.619,0,0,1,8.05-1.4,20.443,20.443,0,0,1,4.97.49q1.89.49,3.29.98t2.52.98a6.6,6.6,0,0,0,2.66.49,2.444,2.444,0,0,0,2.24-1.12h1.54V-44.1h-1.54a60.171,60.171,0,0,0-2.24-5.95,23.781,23.781,0,0,0-3.01-5.11,12.208,12.208,0,0,0-4.34-3.5,13.777,13.777,0,0,0-6.09-1.26q-6.72,0-10.43,3.01a9.836,9.836,0,0,0-3.71,8.05,7.888,7.888,0,0,0,3.15,6.79,33.017,33.017,0,0,0,9.31,4.27l10.22,3.36a29.462,29.462,0,0,1,10.78,6.16,13.5,13.5,0,0,1,4.2,10.36,19.655,19.655,0,0,1-1.47,7.42,18,18,0,0,1-4.34,6.37,22.114,22.114,0,0,1-7,4.41,24.915,24.915,0,0,1-9.45,1.68,23.975,23.975,0,0,1-5.67-.63Q986.58.7,984.41,0t-3.99-1.33a10.332,10.332,0,0,0-3.36-.63,3.294,3.294,0,0,0-2.24.63A5.854,5.854,0,0,0,973.7,0h-1.54ZM1036-54.18a7.152,7.152,0,0,1,2.17-5.25,7.151,7.151,0,0,1,5.25-2.17,7.151,7.151,0,0,1,5.25,2.17,7.151,7.151,0,0,1,2.17,5.25,7.151,7.151,0,0,1-2.17,5.25,7.151,7.151,0,0,1-5.25,2.17,7.151,7.151,0,0,1-5.25-2.17A7.152,7.152,0,0,1,1036-54.18Zm0,48.3a7.152,7.152,0,0,1,2.17-5.25,7.151,7.151,0,0,1,5.25-2.17,7.151,7.151,0,0,1,5.25,2.17,7.151,7.151,0,0,1,2.17,5.25,7.151,7.151,0,0,1-2.17,5.25,7.151,7.151,0,0,1-5.25,2.17,7.151,7.151,0,0,1-5.25-2.17A7.152,7.152,0,0,1,1036-5.88ZM137.782,115.44h15.54V19.68h-15.54V17.72h45.08v1.96h-15.54v95.76h15.54v1.96h-45.08Zm52.08-58.1h10.78V39.28q1.12.42,2.1.7a13.838,13.838,0,0,0,3.36.28,12.054,12.054,0,0,0,3.64-.49,9.135,9.135,0,0,0,2.94-1.61V57.34h19.88V59.3h-19.88v45.78a21.751,21.751,0,0,0,.77,6.37,9.62,9.62,0,0,0,2.03,3.78,6.075,6.075,0,0,0,2.73,1.75,10.421,10.421,0,0,0,2.87.42,9.843,9.843,0,0,0,7.91-3.57,17.289,17.289,0,0,0,3.85-8.19l1.96.7a32.575,32.575,0,0,1-1.26,4.06,14.159,14.159,0,0,1-2.59,4.27,13.607,13.607,0,0,1-4.55,3.36,16.287,16.287,0,0,1-7,1.33q-10.5,0-14.63-4.06t-4.13-11.48V59.3h-10.78Zm96.18-32.62a7.42,7.42,0,1,1,12.67,5.25,7.42,7.42,0,0,1-12.67-5.25Zm-9.1,90.72h10.78V59.3h-10.78V57.34h22.82v58.1h10.78v1.96h-33.6ZM322.3,97.8h1.54a52.438,52.438,0,0,0,2.52,6.79,24.088,24.088,0,0,0,4.13,6.3,20.356,20.356,0,0,0,6.37,4.69,20.819,20.819,0,0,0,9.1,1.82,12.626,12.626,0,0,0,7.98-2.73q3.5-2.73,3.5-8.89,0-5.32-2.73-7.49a21.372,21.372,0,0,0-6.37-3.43l-10.92-3.78q-2.1-.7-4.55-1.75a16.494,16.494,0,0,1-4.55-2.94,14.338,14.338,0,0,1-3.43-4.83,18.448,18.448,0,0,1-1.33-7.56,17.262,17.262,0,0,1,1.54-7.28,18.556,18.556,0,0,1,10.57-9.8,22.619,22.619,0,0,1,8.05-1.4,20.444,20.444,0,0,1,4.97.49q1.89.49,3.29.98t2.52.98a6.6,6.6,0,0,0,2.66.49,2.444,2.444,0,0,0,2.24-1.12h1.54V73.3H359.4a60.186,60.186,0,0,0-2.24-5.95,23.781,23.781,0,0,0-3.01-5.11,12.208,12.208,0,0,0-4.34-3.5,13.778,13.778,0,0,0-6.09-1.26q-6.72,0-10.43,3.01a9.836,9.836,0,0,0-3.71,8.05,7.888,7.888,0,0,0,3.15,6.79,33.017,33.017,0,0,0,9.31,4.27l10.22,3.36a29.461,29.461,0,0,1,10.78,6.16,13.5,13.5,0,0,1,4.2,10.36,19.654,19.654,0,0,1-1.47,7.42,18,18,0,0,1-4.34,6.37,22.113,22.113,0,0,1-7,4.41,24.916,24.916,0,0,1-9.45,1.68,23.975,23.975,0,0,1-5.67-.63q-2.59-.63-4.76-1.33t-3.99-1.33a10.332,10.332,0,0,0-3.36-.63,3.294,3.294,0,0,0-2.24.63,5.855,5.855,0,0,0-1.12,1.33H322.3Zm90.16-40.46H446.2V59.3h-11.62l15.68,43.68,14.56-34.58-3.5-9.1h-5.88V57.34H483.3V59.3h-9.38l16.24,43.4,17.5-43.4H494.5V57.34h22.82V59.3H509.9l-25.06,62.72L465.8,71.2l-21.28,50.82L421.982,59.3h-9.52Zm107.8,58.1h10.78V18.42h-10.78V16.46h22.82V71.48h.28a29.134,29.134,0,0,1,2.38-4.55,22.127,22.127,0,0,1,4.55-5.18,26.794,26.794,0,0,1,7-4.2,25.218,25.218,0,0,1,9.87-1.75q9.24,0,15.05,4.48t5.81,14.28v40.88H598.8v1.96H565.2v-1.96h10.78V70.22a14.669,14.669,0,0,0-2.59-8.96q-2.59-3.5-8.05-3.5a19.4,19.4,0,0,0-8.54,1.96,22.437,22.437,0,0,0-7.14,5.46,25.87,25.87,0,0,0-4.83,8.26,29.8,29.8,0,0,0-1.75,10.36v31.64h10.78v1.96h-33.6ZM644.722,83.1h-.28q-.28,1.82-4.62,3.64l-10.5,4.2a15.307,15.307,0,0,0-6.86,5.11,13.608,13.608,0,0,0-2.38,8.19,23.54,23.54,0,0,0,.42,4.34,11.123,11.123,0,0,0,1.54,3.99,8.546,8.546,0,0,0,3.15,2.87,10.813,10.813,0,0,0,5.25,1.12,13.032,13.032,0,0,0,7.49-1.96,12.827,12.827,0,0,0,4.34-4.9,20.68,20.68,0,0,0,1.96-6.37,44.4,44.4,0,0,0,.49-6.23Zm24.5,32.76a19.183,19.183,0,0,1-4.34,2.45,16.027,16.027,0,0,1-6.16,1.05q-6.72,0-9.73-2.87a15.239,15.239,0,0,1-4.13-8.05h-.28q-.56,1.26-1.54,3.15a12.485,12.485,0,0,1-3.01,3.64,16.754,16.754,0,0,1-5.39,2.94,25.947,25.947,0,0,1-8.54,1.19,27.038,27.038,0,0,1-9.38-1.33,15.3,15.3,0,0,1-5.46-3.29,9.544,9.544,0,0,1-2.59-4.41,18.347,18.347,0,0,1-.63-4.55A13.933,13.933,0,0,1,610,97.94a14.515,14.515,0,0,1,5.11-4.69,33.813,33.813,0,0,1,7-2.87q3.85-1.12,7.77-2.38,4.62-1.54,7.63-2.66a13.523,13.523,0,0,0,4.69-2.73,8.377,8.377,0,0,0,2.31-4.06,27.816,27.816,0,0,0,.63-6.65,38.867,38.867,0,0,0-.42-6.02,12.758,12.758,0,0,0-1.54-4.55,7.152,7.152,0,0,0-3.22-2.87,13.4,13.4,0,0,0-5.6-.98,16.078,16.078,0,0,0-7.63,1.61,5.508,5.508,0,0,0-3.01,5.25,26.162,26.162,0,0,0,.42,4.69,21.273,21.273,0,0,1,.42,3.43,4.356,4.356,0,0,1-1.4,3.29,5.674,5.674,0,0,1-4.06,1.33q-4.62,0-5.74-1.68a7.682,7.682,0,0,1-1.12-4.34,12.981,12.981,0,0,1,1.4-5.88,14.812,14.812,0,0,1,4.13-4.97,20.544,20.544,0,0,1,6.86-3.43,32.4,32.4,0,0,1,9.45-1.26,31.241,31.241,0,0,1,10.78,1.61,18.645,18.645,0,0,1,7,4.34,15.765,15.765,0,0,1,3.78,6.16,23.081,23.081,0,0,1,1.12,7.21V109.7q0,4.06,1.26,5.46a4.645,4.645,0,0,0,3.64,1.4,10.174,10.174,0,0,0,3.22-.56,11.817,11.817,0,0,0,3.22-1.68Zm2.8-58.52H682.8V39.28q1.12.42,2.1.7a13.837,13.837,0,0,0,3.36.28,12.055,12.055,0,0,0,3.64-.49,9.135,9.135,0,0,0,2.94-1.61V57.34h19.88V59.3h-19.88v45.78a21.752,21.752,0,0,0,.77,6.37,9.62,9.62,0,0,0,2.03,3.78,6.075,6.075,0,0,0,2.73,1.75,10.422,10.422,0,0,0,2.87.42,9.843,9.843,0,0,0,7.91-3.57,17.289,17.289,0,0,0,3.85-8.19l1.96.7a32.567,32.567,0,0,1-1.26,4.06,14.158,14.158,0,0,1-2.59,4.27,13.607,13.607,0,0,1-4.55,3.36,16.287,16.287,0,0,1-7,1.33q-10.5,0-14.63-4.06t-4.13-11.48V59.3h-10.78Zm82.6,0h33.74V59.3h-11.62l15.68,43.68,14.56-34.58-3.5-9.1H797.6V57.34h27.86V59.3h-9.38l16.24,43.4,17.5-43.4h-13.16V57.34h22.82V59.3h-7.42L827,122.02,807.962,71.2l-21.28,50.82L764.142,59.3h-9.52ZM906.8,80.72a25.851,25.851,0,0,0,.28-3.64v-3.5a28.239,28.239,0,0,0-.91-7.84,12.749,12.749,0,0,0-2.52-4.9,8.9,8.9,0,0,0-3.92-2.59,15.621,15.621,0,0,0-4.97-.77,14.778,14.778,0,0,0-7.84,1.89,13.923,13.923,0,0,0-4.9,5.11,26.322,26.322,0,0,0-2.73,7.42,58.258,58.258,0,0,0-1.19,8.82Zm-28.84,1.96q0,1.4-.07,2.87t-.07,3.71a87.559,87.559,0,0,0,.56,9.66,29.017,29.017,0,0,0,2.45,9.1,16.961,16.961,0,0,0,5.6,6.72q3.71,2.66,9.87,2.66a24.538,24.538,0,0,0,10.15-1.82,18.68,18.68,0,0,0,6.3-4.41,19.1,19.1,0,0,0,3.43-5.25q1.12-2.66,1.68-4.34l2.1.42a40.2,40.2,0,0,1-1.61,4.41,20.283,20.283,0,0,1-3.78,5.74,22.919,22.919,0,0,1-7,5.04,25.9,25.9,0,0,1-11.41,2.17,36.468,36.468,0,0,1-12.95-2.24,29.6,29.6,0,0,1-10.29-6.44,29.1,29.1,0,0,1-6.72-10.01,33.869,33.869,0,0,1-2.38-12.95,30.521,30.521,0,0,1,2.45-11.97A33.643,33.643,0,0,1,883,58.25a27.765,27.765,0,0,1,20.72-1.33,24.736,24.736,0,0,1,8.33,4.55,25,25,0,0,1,6.44,8.33,28.652,28.652,0,0,1,2.59,12.88Zm109.76,2.66q0,7.28.42,13.23a33.85,33.85,0,0,0,2.1,10.15,13.515,13.515,0,0,0,5.04,6.44q3.36,2.24,9.1,2.24,5.88,0,9.45-2.52a17.016,17.016,0,0,0,5.53-6.51,29.489,29.489,0,0,0,2.66-8.89,67.3,67.3,0,0,0,.7-9.52q0-5.46-.21-9.45a56.487,56.487,0,0,0-.77-7.07,24.065,24.065,0,0,0-1.54-5.32,23.206,23.206,0,0,0-2.38-4.2,16.561,16.561,0,0,0-5.46-4.62,17.814,17.814,0,0,0-8.54-1.82,15.015,15.015,0,0,0-8.05,1.96,13.081,13.081,0,0,0-4.9,5.6,29.394,29.394,0,0,0-2.45,8.75A85.762,85.762,0,0,0,987.722,85.34Zm24.22-68.88h22.82v98.98h10.78v1.96H1023V105.22h-.28a38.314,38.314,0,0,1-1.68,4.06,17.259,17.259,0,0,1-3.29,4.62,19.346,19.346,0,0,1-5.46,3.85,18.2,18.2,0,0,1-8.05,1.61,26.633,26.633,0,0,1-11.69-2.66,32.589,32.589,0,0,1-9.73-7.14,34.518,34.518,0,0,1-6.65-10.29,31.748,31.748,0,0,1-.07-24.29,32.173,32.173,0,0,1,15.82-16.87,25.57,25.57,0,0,1,11.34-2.59q7.7,0,12.46,3.78a20.471,20.471,0,0,1,6.72,9.24h.28V18.42h-10.78Zm57.82,70.98a64.852,64.852,0,0,0,1.54,15.82,24.331,24.331,0,0,0,4.06,9.03,11.7,11.7,0,0,0,5.88,4.13,26.5,26.5,0,0,0,14.28,0,11.7,11.7,0,0,0,5.88-4.13,24.331,24.331,0,0,0,4.06-9.03A64.845,64.845,0,0,0,1107,87.44a74.237,74.237,0,0,0-1.12-14.07,26.375,26.375,0,0,0-3.43-9.24,13.235,13.235,0,0,0-5.81-5.11,22.922,22.922,0,0,0-16.52,0,13.236,13.236,0,0,0-5.81,5.11,26.378,26.378,0,0,0-3.43,9.24A74.237,74.237,0,0,0,1069.762,87.44Zm-14,0a27.552,27.552,0,0,1,3.01-12.74,35.416,35.416,0,0,1,18.2-16.8,28.54,28.54,0,0,1,22.82,0,35.416,35.416,0,0,1,18.2,16.8A27.552,27.552,0,0,1,1121,87.44a28.173,28.173,0,0,1-2.8,12.39,34.715,34.715,0,0,1-17.78,17.01,30.022,30.022,0,0,1-24.08,0,34.715,34.715,0,0,1-17.78-17.01A28.174,28.174,0,0,1,1055.762,87.44Zm75.88,24.08a7.409,7.409,0,1,1,2.17,5.25A7.151,7.151,0,0,1,1131.642,111.52Z" transform="translate(203 548.5)"/></g></svg>