<svg xmlns="http://www.w3.org/2000/svg" width="901.5" height="60.494"><defs><style>.a{fill:none;stroke:#707070}</style></defs><g transform="translate(-662.5 -2551)"><path class="a" d="M662.5 2562.5H1564"/><path d="M789.1 2597.166c0-1.08-.36-1.476-1.458-1.476h-5.63c-1.116 0-1.458.432-1.458 1.476v12.456c0 1.08.36 1.476 1.458 1.476h5.634c1.116 0 1.458-.414 1.458-1.476zm-7.578.108c0-.468.2-.684.684-.684h2.106v6.264h-2.79zm2.79 6.444v6.462h-2.102c-.5 0-.684-.252-.684-.684v-5.778zm.954-.864v-6.264h2.178c.5 0 .684.252.684.684v5.58zm0 .864h2.862v5.782a.6.6 0 01-.684.684h-2.174zm-9.18 7.254c0 .162 0 .522.486.522.468 0 .5-.306.5-.522v-7.672c.126-.018 1.6-.18 1.908-.216.054.126.252.72.306.846a.412.412 0 00.378.306c.108 0 .5-.072.5-.45a16.422 16.422 0 00-.882-2.2c-.36-.81-.432-.918-.666-.918a.435.435 0 00-.432.414.863.863 0 00.09.306c.09.18.27.648.414.972-.774.054-1.566.09-2.34.162-.288.018-.432.036-.648.054a41.362 41.362 0 003.4-5.724.5.5 0 00-.5-.45c-.216 0-.306.126-.432.36-.666 1.206-1.476 2.664-2.052 3.6a13.689 13.689 0 00-1.278-1.332 24.37 24.37 0 002.106-3.8c0-.288-.306-.432-.54-.432-.27 0-.324.108-.81 1.062a22.79 22.79 0 01-1.44 2.574c-.36-.288-.468-.378-.63-.378a.485.485 0 00-.45.468c0 .18.054.234.558.648a18.821 18.821 0 012 1.98c-.288.45-.648.99-.972 1.458a13.307 13.307 0 00-1.332.108.394.394 0 00-.234.378.428.428 0 00.45.45c.09 0 1.26-.072 2.538-.162zm-1.548-6.048c-.342 0-.468.108-.5.468a14.658 14.658 0 01-.468 2.97c-.054.2-.36 1.1-.36 1.206a.488.488 0 00.522.468c.288 0 .4-.234.576-.81a17.81 17.81 0 00.648-3.834.413.413 0 00-.414-.468zm4.14-.036c-.2 0-.522.072-.522.432a4.894 4.894 0 00.216.936 16.5 16.5 0 01.432 2.016c.126.792.162.918.54.918a.478.478 0 00.5-.45 19.3 19.3 0 00-.594-2.844c-.172-.666-.28-1.008-.568-1.008zm48.982-8.316c-.4 0-.486.342-.522.558a28.558 28.558 0 00-.4 4.7c0 5.778 2.07 8.388 3.654 8.388 2.25 0 3.726-4.86 3.726-5.112a.509.509 0 00-.558-.45c-.306 0-.324.09-.594.81-.576 1.566-1.53 3.564-2.538 3.564-1.278 0-2.592-2.736-2.592-7.2a25.451 25.451 0 01.234-3.438 11.327 11.327 0 00.2-1.332c.002-.38-.412-.488-.61-.488zm10.224 1.26a.518.518 0 00-.5.522c0 .126.072.2.576.954a14.359 14.359 0 012.2 7.146c.036.486.054.9.522.9.576 0 .576-.5.576-.846a14.858 14.858 0 00-1.26-5.742c-.332-.738-1.484-2.934-2.114-2.934z"/><path class="a" d="M807.514 2552.5v20"/><path d="M1093.005 2603.968c0-1.08-.378-1.458-1.458-1.458h-8.584c-1.116 0-1.458.4-1.458 1.458v3.672c0 1.1.378 1.458 1.458 1.458h8.586c1.1 0 1.458-.4 1.458-1.458zm-10.566 1.4v-1.35c0-.45.2-.684.666-.684h8.28c.5 0 .684.252.684.684v1.35zm9.63 2.214a.6.6 0 01-.684.684h-8.28c-.486 0-.666-.252-.666-.684v-1.418h9.63zm-6.806-12.434a20.789 20.789 0 00-1.152-2.07c-.088-.108-.232-.288-.43-.288-.144 0-.54.108-.54.45 0 .108.036.162.288.594a9.913 9.913 0 01.734 1.314h-4.14a.429.429 0 00-.5.45c0 .432.378.432.5.432h5.17v4.212h-5.688c-.144 0-.522 0-.522.45s.378.45.522.45h15.48c.144 0 .522 0 .522-.45s-.378-.45-.522-.45h-5.634v-4.212h5.2c.144 0 .5 0 .5-.45 0-.432-.36-.432-.5-.432h-4.088a7.5 7.5 0 001.044-1.89c0-.306-.36-.45-.576-.45-.288 0-.378.2-.468.378a18.02 18.02 0 01-1.152 1.962zm3.132 5.094h-2.25v-4.212h2.25zm-6.586-3.834c-.144 0-.522.144-.522.432a.953.953 0 00.144.414 16.437 16.437 0 01.846 1.818c.288.7.306.774.594.774a.541.541 0 00.576-.486 10.816 10.816 0 00-.954-2.2c-.324-.626-.396-.752-.684-.752zm10.746 0c-.27 0-.36.252-.4.36a17.507 17.507 0 01-.846 1.908c-.288.522-.306.594-.306.72 0 .306.36.45.54.45.288 0 .36-.162.612-.648a11.885 11.885 0 001.008-2.3.546.546 0 00-.608-.49zm45.4.72c-1.08 0-1.458.378-1.458 1.476v8.046c0 .144 0 .522.468.522.414 0 .468-.288.468-.522v-3.114h3.942v2.844c0 .18 0 .522.468.522.432 0 .468-.342.468-.522v-2.844h3.906v1.944c0 .63-.4.684-.684.684-.18 0-1.1-.054-1.134-.054-.162 0-.5 0-.5.45 0 .072.036.486.4.54h1.4c1.08 0 1.476-.342 1.476-1.458v-7.042c0-1.08-.36-1.476-1.458-1.476h-3.054c-.054-.036-.288-.216-.342-.252a19.625 19.625 0 002.632-1.272c1.062-.63 1.26-.918 1.26-1.314 0-.774-.72-.774-1.206-.774h-8.262c-.252 0-.5.108-.5.414 0 .216.126.414.5.414h7.866c.18 0 .378 0 .378.162 0 .342-1.89 1.152-3.384 1.818a9.4 9.4 0 00-2.484-1.476.521.521 0 00-.468.486c0 .2.018.234.738.648.828.486 1.314.846 1.746 1.152zm-.522 2.754v-1.26a.6.6 0 01.684-.684h3.258v1.944zm4.878-1.944h3.24c.486 0 .666.252.666.684v1.26h-3.906zm-.936 4.752h-3.942v-1.962h3.942zm4.842 0h-3.906v-1.962h3.906zm-14.71-8.964c.036.126.072.144.468.432.63.486 1.224.99 1.8 1.53.576.558.63.63.828.63a.583.583 0 00.54-.558c0-.252-.648-.81-.99-1.1a9.668 9.668 0 00-2.178-1.548.513.513 0 00-.468.614zm7.542 14.454a6.664 6.664 0 01-2.97-.684 3.312 3.312 0 01-1.548-2.556v-3.474c0-1.08-.378-1.458-1.458-1.458h-1.51a.479.479 0 100 .954h1.278a.6.6 0 01.684.684v4.194a9.523 9.523 0 01-1.782 1.926c-.684.576-.7.576-.7.774a.585.585 0 00.522.594c.324 0 1.476-1.134 2.556-2.538.954 2.088 3.276 2.52 5.112 2.52h8.1c.252 0 .54-.09.54-.558 0-.288-.2-.378-.486-.378z"/><circle cx="11" cy="11" r="11" transform="translate(1100 2551)" fill="#ae9b3d"/><path d="M1391.626 2598.046a12.421 12.421 0 01-2.358 6.354 14.224 14.224 0 01-4.77 3.816c-.27.126-.4.2-.4.414 0 .288.2.63.5.63.5 0 2.682-1.476 3.636-2.286a13.3 13.3 0 004.194-7.218 14.234 14.234 0 003.348 6.156c1.584 1.746 3.852 3.258 4.32 3.258a.617.617 0 00.558-.612.356.356 0 00-.09-.252 6.658 6.658 0 00-.846-.522 13.947 13.947 0 01-6.768-9.738h7.326c.162 0 .54 0 .54-.5a.458.458 0 00-.54-.486h-7.534v-3.66c0-.306-.072-.54-.576-.54a.468.468 0 00-.522.54v3.656h-7.2a.451.451 0 00-.522.5.446.446 0 00.522.486zm-.2 6.93a.583.583 0 00-.63.522c0 .18.126.306.288.45a24.422 24.422 0 012.106 2.106c.7.792.7.81.918.81a.639.639 0 00.612-.576c0-.162 0-.252-.72-1.008a13.583 13.583 0 00-2.572-2.304zm47.232-10.4c-.4 0-.486.342-.522.558a28.558 28.558 0 00-.4 4.7c0 5.778 2.07 8.388 3.654 8.388 2.25 0 3.726-4.86 3.726-5.112a.509.509 0 00-.558-.45c-.306 0-.324.09-.594.81-.576 1.566-1.53 3.564-2.538 3.564-1.278 0-2.592-2.736-2.592-7.2a25.451 25.451 0 01.234-3.438 11.327 11.327 0 00.2-1.332c.004-.384-.41-.492-.608-.492zm10.224 1.26a.518.518 0 00-.5.522c0 .126.072.2.576.954a14.359 14.359 0 012.2 7.146c.036.486.054.9.522.9.576 0 .576-.5.576-.846a14.858 14.858 0 00-1.26-5.742c-.33-.742-1.482-2.938-2.112-2.938z"/><path class="a" d="M1418.47 2552.5v20"/></g></svg>