<svg xmlns="http://www.w3.org/2000/svg" width="901.5" height="58.422"><defs><style>.a{fill:none;stroke:#707070}</style></defs><g transform="translate(-662.5 -2271)"><path class="a" d="M662.5 2281.5H1564"/><path d="M782.294 2313.312c0-.342-.144-.54-.594-.54a.463.463 0 00-.522.54v8.5c0 .9-.576.954-1.008.954-.252 0-1.458-.036-1.728-.036-.234 0-.576 0-.576.486 0 .576.414.576.792.576 1.746 0 1.944 0 2.142-.018 1.26-.072 1.494-.774 1.494-1.8zm3.078 1.026a.539.539 0 00-.594.468 19.2 19.2 0 003.6 6.336c.612.72.774.882 1.044.882a.608.608 0 00.594-.576c0-.2-.108-.324-.288-.5a18.607 18.607 0 01-3.888-6.192c-.072-.202-.18-.418-.468-.418zm-7.79-.018c-.324 0-.414.216-.5.54a15.593 15.593 0 01-3.456 6.1c-.162.162-.27.288-.27.45a.627.627 0 00.594.612c.324 0 .522-.252 1.008-.864a18.928 18.928 0 003.258-6.336.577.577 0 00-.634-.502zm8.568 6.39c-.342 0-.432.126-.594.45-2.646 5.256-8.01 6.624-11.43 7.146-.252.036-.54.09-.54.522a.547.547 0 00.54.594 12.718 12.718 0 001.548-.27 19.906 19.906 0 004.788-1.62 12.537 12.537 0 006.21-6.318.568.568 0 00-.526-.504zm28.98 5.562c0-.2-.036-.342-.738-.792a16.85 16.85 0 00-2.934-1.386c-.036-.7-.126-3.87-.144-4.5-.018-.342-.018-.738-.558-.738-.486 0-.486.4-.486.576 0 .36.162 3.654.18 4.338a10.629 10.629 0 00-2.628-.378c-2.61 0-3.51 1.458-3.51 2.628 0 1.584 1.368 2.736 3.852 2.736 3.33 0 3.33-2.016 3.33-3.618a13.8 13.8 0 012.43 1.35c.468.342.522.378.7.378a.562.562 0 00.502-.594zm-4.662-1.512a10.6 10.6 0 01-.054 1.692c-.2 1.224-1.62 1.368-2.358 1.368-1.674 0-2.754-.72-2.754-1.782 0-1.206 1.242-1.71 2.538-1.71a8.511 8.511 0 012.624.432zm4.714-6.39c0-.234 0-.378-1.08-.936a20.618 20.618 0 00-3.42-1.494.5.5 0 00-.5.5c0 .252.144.36.468.5a32.051 32.051 0 012.916 1.386c.882.5.972.558 1.17.558a.487.487 0 00.446-.514zm-6.534-2c0-.288-.144-.54-.432-.54-.108 0-.738.108-1.1.18-.342.054-1.332.2-1.854.252a16.943 16.943 0 00.756-2.61c0-.27-.252-.432-.576-.432-.144 0-.378.018-.5.45-.252.882-.666 2.376-.774 2.682-.522.018-.99.054-1.854.054-.18 0-1.08-.036-1.3-.036s-.612 0-.612.5c0 .54.324.54.882.54.45 0 1.386 0 2.538-.054a52.622 52.622 0 01-3.024 6.786c-.378.7-.414.774-.414.936a.562.562 0 00.594.522c.36 0 .414-.126.918-1.116a57.467 57.467 0 003.024-7.218c1.422-.144 1.962-.18 3.24-.414.252-.03.486-.102.486-.48zm19.3-1.8c-.4 0-.486.342-.522.558a28.558 28.558 0 00-.4 4.7c0 5.778 2.07 8.388 3.654 8.388 2.25 0 3.726-4.86 3.726-5.112a.509.509 0 00-.558-.45c-.306 0-.324.09-.594.81-.576 1.566-1.53 3.564-2.538 3.564-1.278 0-2.592-2.736-2.592-7.2a25.451 25.451 0 01.234-3.438 11.327 11.327 0 00.2-1.332c-.004-.378-.418-.486-.616-.486zm10.224 1.26a.518.518 0 00-.5.522c0 .126.072.2.576.954a14.359 14.359 0 012.2 7.146c.036.486.054.9.522.9.576 0 .576-.5.576-.846a14.858 14.858 0 00-1.26-5.742c-.338-.736-1.49-2.932-2.12-2.932z"/><path class="a" d="M1113.5 2271.5v20"/><path d="M1092.142 2323.968c0-1.08-.378-1.458-1.458-1.458h-8.584c-1.116 0-1.458.4-1.458 1.458v3.672c0 1.1.378 1.458 1.458 1.458h8.586c1.1 0 1.458-.4 1.458-1.458zm-10.566 1.4v-1.35c0-.45.2-.684.666-.684h8.28c.5 0 .684.252.684.684v1.35zm9.63 2.214a.6.6 0 01-.684.684h-8.28c-.486 0-.666-.252-.666-.684v-1.418h9.63zm-6.806-12.434a20.789 20.789 0 00-1.152-2.07c-.088-.108-.232-.288-.43-.288-.144 0-.54.108-.54.45 0 .108.036.162.288.594a9.913 9.913 0 01.734 1.314h-4.14a.429.429 0 00-.5.45c0 .432.378.432.5.432h5.17v4.212h-5.688c-.144 0-.522 0-.522.45s.378.45.522.45h15.48c.144 0 .522 0 .522-.45s-.378-.45-.522-.45h-5.634v-4.212h5.2c.144 0 .5 0 .5-.45 0-.432-.36-.432-.5-.432h-4.088a7.5 7.5 0 001.044-1.89c0-.306-.36-.45-.576-.45-.288 0-.378.2-.468.378a18.02 18.02 0 01-1.152 1.962zm3.132 5.094h-2.25v-4.212h2.25zm-6.586-3.834c-.144 0-.522.144-.522.432a.953.953 0 00.144.414 16.437 16.437 0 01.846 1.818c.288.7.306.774.594.774a.541.541 0 00.576-.486 10.816 10.816 0 00-.954-2.2c-.324-.626-.396-.752-.684-.752zm10.746 0c-.27 0-.36.252-.4.36a17.507 17.507 0 01-.846 1.908c-.288.522-.306.594-.306.72 0 .306.36.45.54.45.288 0 .36-.162.612-.648a11.885 11.885 0 001.008-2.3.546.546 0 00-.608-.49zm45.4.72c-1.08 0-1.458.378-1.458 1.476v8.046c0 .144 0 .522.468.522.414 0 .468-.288.468-.522v-3.114h3.942v2.844c0 .18 0 .522.468.522.432 0 .468-.342.468-.522v-2.844h3.906v1.944c0 .63-.4.684-.684.684-.18 0-1.1-.054-1.134-.054-.162 0-.5 0-.5.45 0 .072.036.486.4.54h1.4c1.08 0 1.476-.342 1.476-1.458v-7.042c0-1.08-.36-1.476-1.458-1.476h-3.054c-.054-.036-.288-.216-.342-.252a19.625 19.625 0 002.632-1.272c1.062-.63 1.26-.918 1.26-1.314 0-.774-.72-.774-1.206-.774h-8.262c-.252 0-.5.108-.5.414 0 .216.126.414.5.414h7.866c.18 0 .378 0 .378.162 0 .342-1.89 1.152-3.384 1.818a9.4 9.4 0 00-2.484-1.476.521.521 0 00-.468.486c0 .2.018.234.738.648.828.486 1.314.846 1.746 1.152zm-.522 2.754v-1.26a.6.6 0 01.684-.684h3.258v1.944zm4.878-1.944h3.24c.486 0 .666.252.666.684v1.26h-3.906zm-.936 4.752h-3.942v-1.962h3.942zm4.842 0h-3.906v-1.962h3.906zm-14.71-8.964c.036.126.072.144.468.432.63.486 1.224.99 1.8 1.53.576.558.63.63.828.63a.583.583 0 00.54-.558c0-.252-.648-.81-.99-1.1a9.668 9.668 0 00-2.178-1.548.513.513 0 00-.468.614zm7.542 14.454a6.664 6.664 0 01-2.97-.684 3.312 3.312 0 01-1.548-2.556v-3.474c0-1.08-.378-1.458-1.458-1.458h-1.51a.479.479 0 100 .954h1.278a.6.6 0 01.684.684v4.194a9.523 9.523 0 01-1.782 1.926c-.684.576-.7.576-.7.774a.585.585 0 00.522.594c.324 0 1.476-1.134 2.556-2.538.954 2.088 3.276 2.52 5.112 2.52h8.1c.252 0 .54-.09.54-.558 0-.288-.2-.378-.486-.378z"/><circle cx="11" cy="11" r="11" transform="translate(797 2271)" fill="#ae9b3d"/><path d="M1394.903 2320.6c.342-.324 1.206-1.116 1.206-1.422a.566.566 0 00-.558-.5c-.18 0-.27.072-.468.306a16.3 16.3 0 01-7.632 4.734c-.144.036-.468.126-.468.468a.533.533 0 00.486.558 11.518 11.518 0 003.726-1.512 21.99 21.99 0 012.646 3.294 21.852 21.852 0 01-7 1.728c-.27.018-.594.072-.594.468 0 .036 0 .594.5.594a20.338 20.338 0 003.78-.576c6.588-1.6 9.774-5.67 9.774-7.182 0-.954-.864-.954-1.494-.954zm3.492.864c.558 0 .792 0 .792.378 0 .5-1.188 2.466-4.41 4.23a28.668 28.668 0 00-2.714-3.346c.126-.09.972-.594 1.818-1.26zm-6.932-7.288c.648-.666.72-.792.72-.954a.5.5 0 00-.556-.432c-.2 0-.306.126-.468.306a14.154 14.154 0 01-5.688 3.904c-.252.09-.378.162-.378.4a.512.512 0 00.45.522 9.307 9.307 0 002.646-1.188 16.557 16.557 0 012.826 2.88 13.96 13.96 0 01-5.652 1.78c-.18.018-.54.036-.54.45a.508.508 0 00.522.54 17.17 17.17 0 0010.512-5.292c1.206-1.224 1.278-1.638 1.278-2.016 0-.882-.828-.9-1.35-.9zm3.888.9c.36 0 .576.018.576.306s-.774 1.062-1.062 1.35a18.617 18.617 0 01-2.988 2.376 19.015 19.015 0 00-2.9-2.88 14.573 14.573 0 001.516-1.152zm43.47-.5c-.4 0-.486.342-.522.558a28.558 28.558 0 00-.4 4.7c0 5.778 2.07 8.388 3.654 8.388 2.25 0 3.726-4.86 3.726-5.112a.509.509 0 00-.558-.45c-.306 0-.324.09-.594.81-.576 1.566-1.53 3.564-2.538 3.564-1.278 0-2.592-2.736-2.592-7.2a25.451 25.451 0 01.234-3.438 11.327 11.327 0 00.2-1.332c.004-.384-.41-.492-.608-.492zm10.224 1.26a.518.518 0 00-.5.522c0 .126.072.2.576.954a14.359 14.359 0 012.2 7.146c.036.486.054.9.522.9.576 0 .576-.5.576-.846a14.858 14.858 0 00-1.26-5.742c-.33-.742-1.482-2.938-2.112-2.938z"/><path class="a" d="M1418.47 2271.5v20"/></g></svg>