<svg xmlns="http://www.w3.org/2000/svg" width="901.5" height="58.422" viewBox="0 0 901.5 58.422"><defs><style>.a{fill:none;stroke:#707070;}.b{fill:#ae9b3d;}</style></defs><g transform="translate(-662.5 -2271)"><line class="a" x2="901.5" transform="translate(662.5 2281.5)"/><path d="M76.012,1.312c0-.342-.144-.54-.594-.54a.463.463,0,0,0-.522.54v8.5c0,.9-.576.954-1.008.954-.252,0-1.458-.036-1.728-.036-.234,0-.576,0-.576.486,0,.576.414.576.792.576,1.746,0,1.944,0,2.142-.018,1.26-.072,1.494-.774,1.494-1.8ZM79.09,2.338a.539.539,0,0,0-.594.468,19.2,19.2,0,0,0,3.6,6.336c.612.72.774.882,1.044.882a.608.608,0,0,0,.594-.576c0-.2-.108-.324-.288-.5a18.607,18.607,0,0,1-3.888-6.192C79.486,2.554,79.378,2.338,79.09,2.338ZM71.3,2.32c-.324,0-.414.216-.5.54a15.593,15.593,0,0,1-3.456,6.1c-.162.162-.27.288-.27.45a.627.627,0,0,0,.594.612c.324,0,.522-.252,1.008-.864a18.928,18.928,0,0,0,3.258-6.336A.577.577,0,0,0,71.3,2.32Zm8.568,6.39c-.342,0-.432.126-.594.45-2.646,5.256-8.01,6.624-11.43,7.146-.252.036-.54.09-.54.522a.547.547,0,0,0,.54.594,12.718,12.718,0,0,0,1.548-.27,19.906,19.906,0,0,0,4.788-1.62,12.537,12.537,0,0,0,6.21-6.318A.568.568,0,0,0,79.864,8.71Zm28.98,5.562c0-.2-.036-.342-.738-.792a16.85,16.85,0,0,0-2.934-1.386c-.036-.7-.126-3.87-.144-4.5-.018-.342-.018-.738-.558-.738-.486,0-.486.4-.486.576,0,.36.162,3.654.18,4.338a10.629,10.629,0,0,0-2.628-.378c-2.61,0-3.51,1.458-3.51,2.628,0,1.584,1.368,2.736,3.852,2.736,3.33,0,3.33-2.016,3.33-3.618a13.8,13.8,0,0,1,2.43,1.35c.468.342.522.378.7.378A.562.562,0,0,0,108.844,14.272Zm-4.662-1.512a10.6,10.6,0,0,1-.054,1.692c-.2,1.224-1.62,1.368-2.358,1.368-1.674,0-2.754-.72-2.754-1.782,0-1.206,1.242-1.71,2.538-1.71A8.511,8.511,0,0,1,104.182,12.76ZM108.9,6.37c0-.234,0-.378-1.08-.936A20.618,20.618,0,0,0,104.4,3.94a.5.5,0,0,0-.5.5c0,.252.144.36.468.5a32.051,32.051,0,0,1,2.916,1.386c.882.5.972.558,1.17.558A.487.487,0,0,0,108.9,6.37Zm-6.534-2c0-.288-.144-.54-.432-.54-.108,0-.738.108-1.1.18-.342.054-1.332.2-1.854.252a16.943,16.943,0,0,0,.756-2.61c0-.27-.252-.432-.576-.432-.144,0-.378.018-.5.45-.252.882-.666,2.376-.774,2.682-.522.018-.99.054-1.854.054-.18,0-1.08-.036-1.3-.036s-.612,0-.612.5c0,.54.324.54.882.54.45,0,1.386,0,2.538-.054a52.622,52.622,0,0,1-3.024,6.786c-.378.7-.414.774-.414.936a.562.562,0,0,0,.594.522c.36,0,.414-.126.918-1.116a57.467,57.467,0,0,0,3.024-7.218c1.422-.144,1.962-.18,3.24-.414C102.13,4.822,102.364,4.75,102.364,4.372Zm19.3-1.8c-.4,0-.486.342-.522.558a28.558,28.558,0,0,0-.4,4.7c0,5.778,2.07,8.388,3.654,8.388,2.25,0,3.726-4.86,3.726-5.112a.509.509,0,0,0-.558-.45c-.306,0-.324.09-.594.81-.576,1.566-1.53,3.564-2.538,3.564-1.278,0-2.592-2.736-2.592-7.2a25.451,25.451,0,0,1,.234-3.438,11.327,11.327,0,0,0,.2-1.332C122.272,2.68,121.858,2.572,121.66,2.572Zm10.224,1.26a.518.518,0,0,0-.5.522c0,.126.072.2.576.954a14.359,14.359,0,0,1,2.2,7.146c.036.486.054.9.522.9.576,0,.576-.5.576-.846a14.858,14.858,0,0,0-1.26-5.742C133.666,6.028,132.514,3.832,131.884,3.832Z" transform="translate(706.282 2312)"/><line class="a" y2="20" transform="translate(807.514 2271.5)"/><path d="M81.142,11.968c0-1.08-.378-1.458-1.458-1.458H71.1c-1.116,0-1.458.4-1.458,1.458V15.64c0,1.1.378,1.458,1.458,1.458h8.586c1.1,0,1.458-.4,1.458-1.458Zm-10.566,1.4v-1.35c0-.45.2-.684.666-.684h8.28c.5,0,.684.252.684.684v1.35Zm9.63,2.214a.6.6,0,0,1-.684.684h-8.28c-.486,0-.666-.252-.666-.684V14.164h9.63ZM73.4,3.148a20.789,20.789,0,0,0-1.152-2.07C72.16.97,72.016.79,71.818.79c-.144,0-.54.108-.54.45,0,.108.036.162.288.594A9.913,9.913,0,0,1,72.3,3.148h-4.14a.429.429,0,0,0-.5.45c0,.432.378.432.5.432H73.33V8.242H67.642c-.144,0-.522,0-.522.45s.378.45.522.45h15.48c.144,0,.522,0,.522-.45s-.378-.45-.522-.45H77.488V4.03h5.2c.144,0,.5,0,.5-.45,0-.432-.36-.432-.5-.432H78.6a7.5,7.5,0,0,0,1.044-1.89c0-.306-.36-.45-.576-.45-.288,0-.378.2-.468.378a18.02,18.02,0,0,1-1.152,1.962Zm3.132,5.094h-2.25V4.03h2.25ZM69.946,4.408c-.144,0-.522.144-.522.432a.953.953,0,0,0,.144.414,16.437,16.437,0,0,1,.846,1.818c.288.7.306.774.594.774a.541.541,0,0,0,.576-.486,10.816,10.816,0,0,0-.954-2.2C70.306,4.534,70.234,4.408,69.946,4.408Zm10.746,0c-.27,0-.36.252-.4.36a17.507,17.507,0,0,1-.846,1.908c-.288.522-.306.594-.306.72,0,.306.36.45.54.45.288,0,.36-.162.612-.648a11.885,11.885,0,0,0,1.008-2.3A.546.546,0,0,0,80.692,4.408Zm45.4.72c-1.08,0-1.458.378-1.458,1.476V14.65c0,.144,0,.522.468.522.414,0,.468-.288.468-.522V11.536h3.942V14.38c0,.18,0,.522.468.522.432,0,.468-.342.468-.522V11.536h3.906V13.48c0,.63-.4.684-.684.684-.18,0-1.1-.054-1.134-.054-.162,0-.5,0-.5.45,0,.072.036.486.4.54h1.4c1.08,0,1.476-.342,1.476-1.458V6.6c0-1.08-.36-1.476-1.458-1.476H130.8c-.054-.036-.288-.216-.342-.252A19.625,19.625,0,0,0,133.09,3.6c1.062-.63,1.26-.918,1.26-1.314,0-.774-.72-.774-1.206-.774h-8.262c-.252,0-.5.108-.5.414,0,.216.126.414.5.414h7.866c.18,0,.378,0,.378.162,0,.342-1.89,1.152-3.384,1.818a9.4,9.4,0,0,0-2.484-1.476.521.521,0,0,0-.468.486c0,.2.018.234.738.648.828.486,1.314.846,1.746,1.152Zm-.522,2.754V6.622a.6.6,0,0,1,.684-.684h3.258V7.882Zm4.878-1.944h3.24c.486,0,.666.252.666.684v1.26h-3.906Zm-.936,4.752h-3.942V8.728h3.942Zm4.842,0h-3.906V8.728h3.906ZM119.644,1.726c.036.126.072.144.468.432.63.486,1.224.99,1.8,1.53.576.558.63.63.828.63a.583.583,0,0,0,.54-.558c0-.252-.648-.81-.99-1.1a9.668,9.668,0,0,0-2.178-1.548A.513.513,0,0,0,119.644,1.726Zm7.542,14.454a6.664,6.664,0,0,1-2.97-.684,3.312,3.312,0,0,1-1.548-2.556V9.466c0-1.08-.378-1.458-1.458-1.458H119.7a.479.479,0,1,0,0,.954h1.278a.6.6,0,0,1,.684.684V13.84a9.523,9.523,0,0,1-1.782,1.926c-.684.576-.7.576-.7.774a.585.585,0,0,0,.522.594c.324,0,1.476-1.134,2.556-2.538.954,2.088,3.276,2.52,5.112,2.52h8.1c.252,0,.54-.09.54-.558,0-.288-.2-.378-.486-.378Z" transform="translate(1011 2312)"/><circle class="b" cx="11" cy="11" r="11" transform="translate(1100 2271)"/><path d="M77.74,8.6c.342-.324,1.206-1.116,1.206-1.422a.566.566,0,0,0-.558-.5c-.18,0-.27.072-.468.306a16.3,16.3,0,0,1-7.632,4.734c-.144.036-.468.126-.468.468a.533.533,0,0,0,.486.558,11.518,11.518,0,0,0,3.726-1.512,21.99,21.99,0,0,1,2.646,3.294,21.852,21.852,0,0,1-7,1.728c-.27.018-.594.072-.594.468,0,.036,0,.594.5.594a20.338,20.338,0,0,0,3.78-.576c6.588-1.6,9.774-5.67,9.774-7.182,0-.954-.864-.954-1.494-.954Zm3.492.864c.558,0,.792,0,.792.378,0,.5-1.188,2.466-4.41,4.23A28.668,28.668,0,0,0,74.9,10.726c.126-.09.972-.594,1.818-1.26ZM74.3,2.176c.648-.666.72-.792.72-.954A.5.5,0,0,0,74.464.79c-.2,0-.306.126-.468.306A14.154,14.154,0,0,1,68.308,5c-.252.09-.378.162-.378.4a.512.512,0,0,0,.45.522,9.307,9.307,0,0,0,2.646-1.188,16.557,16.557,0,0,1,2.826,2.88A13.96,13.96,0,0,1,68.2,9.394c-.18.018-.54.036-.54.45a.508.508,0,0,0,.522.54A17.17,17.17,0,0,0,78.694,5.092c1.206-1.224,1.278-1.638,1.278-2.016,0-.882-.828-.9-1.35-.9Zm3.888.9c.36,0,.576.018.576.306s-.774,1.062-1.062,1.35a18.617,18.617,0,0,1-2.988,2.376,19.015,19.015,0,0,0-2.9-2.88A14.573,14.573,0,0,0,73.33,3.076Zm43.47-.5c-.4,0-.486.342-.522.558a28.558,28.558,0,0,0-.4,4.7c0,5.778,2.07,8.388,3.654,8.388,2.25,0,3.726-4.86,3.726-5.112a.509.509,0,0,0-.558-.45c-.306,0-.324.09-.594.81-.576,1.566-1.53,3.564-2.538,3.564-1.278,0-2.592-2.736-2.592-7.2a25.451,25.451,0,0,1,.234-3.438,11.327,11.327,0,0,0,.2-1.332C122.272,2.68,121.858,2.572,121.66,2.572Zm10.224,1.26a.518.518,0,0,0-.5.522c0,.126.072.2.576.954a14.359,14.359,0,0,1,2.2,7.146c.036.486.054.9.522.9.576,0,.576-.5.576-.846a14.858,14.858,0,0,0-1.26-5.742C133.666,6.028,132.514,3.832,131.884,3.832Z" transform="translate(1317.163 2312)"/><line class="a" y2="20" transform="translate(1418.47 2271.5)"/></g></svg>