<svg xmlns="http://www.w3.org/2000/svg" width="901.5" height="60.494" viewBox="0 0 901.5 60.494"><defs><style>.a{fill:none;stroke:#707070;}.b{fill:#ae9b3d;}</style></defs><g transform="translate(-663 -2551)"><line class="a" x2="901.5" transform="translate(663 2562.5)"/><path d="M83.1,3.166c0-1.08-.36-1.476-1.458-1.476H76.012c-1.116,0-1.458.432-1.458,1.476V15.622c0,1.08.36,1.476,1.458,1.476h5.634c1.116,0,1.458-.414,1.458-1.476Zm-7.578.108c0-.468.2-.684.684-.684h2.106V8.854h-2.79Zm2.79,6.444V16.18H76.21c-.5,0-.684-.252-.684-.684V9.718Zm.954-.864V2.59h2.178c.5,0,.684.252.684.684v5.58Zm0,.864h2.862V15.5a.6.6,0,0,1-.684.684H79.27Zm-9.18,7.254c0,.162,0,.522.486.522.468,0,.5-.306.5-.522V9.3c.126-.018,1.6-.18,1.908-.216.054.126.252.72.306.846a.412.412,0,0,0,.378.306c.108,0,.5-.072.5-.45a16.422,16.422,0,0,0-.882-2.2c-.36-.81-.432-.918-.666-.918a.435.435,0,0,0-.432.414.863.863,0,0,0,.09.306c.09.18.27.648.414.972-.774.054-1.566.09-2.34.162-.288.018-.432.036-.648.054a41.362,41.362,0,0,0,3.4-5.724.5.5,0,0,0-.5-.45c-.216,0-.306.126-.432.36-.666,1.206-1.476,2.664-2.052,3.6a13.689,13.689,0,0,0-1.278-1.332,24.37,24.37,0,0,0,2.106-3.8c0-.288-.306-.432-.54-.432-.27,0-.324.108-.81,1.062a22.79,22.79,0,0,1-1.44,2.574c-.36-.288-.468-.378-.63-.378a.485.485,0,0,0-.45.468c0,.18.054.234.558.648a18.821,18.821,0,0,1,2,1.98c-.288.45-.648.99-.972,1.458a13.307,13.307,0,0,0-1.332.108.394.394,0,0,0-.234.378.428.428,0,0,0,.45.45c.09,0,1.26-.072,2.538-.162Zm-1.548-6.048c-.342,0-.468.108-.5.468a14.658,14.658,0,0,1-.468,2.97c-.054.2-.36,1.1-.36,1.206a.488.488,0,0,0,.522.468c.288,0,.4-.234.576-.81a17.81,17.81,0,0,0,.648-3.834A.413.413,0,0,0,68.542,10.924Zm4.14-.036c-.2,0-.522.072-.522.432a4.894,4.894,0,0,0,.216.936,16.5,16.5,0,0,1,.432,2.016c.126.792.162.918.54.918a.478.478,0,0,0,.5-.45,19.3,19.3,0,0,0-.594-2.844C73.078,11.23,72.97,10.888,72.682,10.888ZM121.66,2.572c-.4,0-.486.342-.522.558a28.558,28.558,0,0,0-.4,4.7c0,5.778,2.07,8.388,3.654,8.388,2.25,0,3.726-4.86,3.726-5.112a.509.509,0,0,0-.558-.45c-.306,0-.324.09-.594.81-.576,1.566-1.53,3.564-2.538,3.564-1.278,0-2.592-2.736-2.592-7.2a25.451,25.451,0,0,1,.234-3.438,11.327,11.327,0,0,0,.2-1.332C122.272,2.68,121.858,2.572,121.66,2.572Zm10.224,1.26a.518.518,0,0,0-.5.522c0,.126.072.2.576.954a14.359,14.359,0,0,1,2.2,7.146c.036.486.054.9.522.9.576,0,.576-.5.576-.846a14.858,14.858,0,0,0-1.26-5.742C133.666,6.028,132.514,3.832,131.884,3.832Z" transform="translate(706 2594)"/><line class="a" y2="20" transform="translate(807.514 2552.5)"/><path d="M81.142,11.968c0-1.08-.378-1.458-1.458-1.458H71.1c-1.116,0-1.458.4-1.458,1.458V15.64c0,1.1.378,1.458,1.458,1.458h8.586c1.1,0,1.458-.4,1.458-1.458Zm-10.566,1.4v-1.35c0-.45.2-.684.666-.684h8.28c.5,0,.684.252.684.684v1.35Zm9.63,2.214a.6.6,0,0,1-.684.684h-8.28c-.486,0-.666-.252-.666-.684V14.164h9.63ZM73.4,3.148a20.789,20.789,0,0,0-1.152-2.07C72.16.97,72.016.79,71.818.79c-.144,0-.54.108-.54.45,0,.108.036.162.288.594A9.913,9.913,0,0,1,72.3,3.148h-4.14a.429.429,0,0,0-.5.45c0,.432.378.432.5.432H73.33V8.242H67.642c-.144,0-.522,0-.522.45s.378.45.522.45h15.48c.144,0,.522,0,.522-.45s-.378-.45-.522-.45H77.488V4.03h5.2c.144,0,.5,0,.5-.45,0-.432-.36-.432-.5-.432H78.6a7.5,7.5,0,0,0,1.044-1.89c0-.306-.36-.45-.576-.45-.288,0-.378.2-.468.378a18.02,18.02,0,0,1-1.152,1.962Zm3.132,5.094h-2.25V4.03h2.25ZM69.946,4.408c-.144,0-.522.144-.522.432a.953.953,0,0,0,.144.414,16.437,16.437,0,0,1,.846,1.818c.288.7.306.774.594.774a.541.541,0,0,0,.576-.486,10.816,10.816,0,0,0-.954-2.2C70.306,4.534,70.234,4.408,69.946,4.408Zm10.746,0c-.27,0-.36.252-.4.36a17.507,17.507,0,0,1-.846,1.908c-.288.522-.306.594-.306.72,0,.306.36.45.54.45.288,0,.36-.162.612-.648a11.885,11.885,0,0,0,1.008-2.3A.546.546,0,0,0,80.692,4.408Zm45.4.72c-1.08,0-1.458.378-1.458,1.476V14.65c0,.144,0,.522.468.522.414,0,.468-.288.468-.522V11.536h3.942V14.38c0,.18,0,.522.468.522.432,0,.468-.342.468-.522V11.536h3.906V13.48c0,.63-.4.684-.684.684-.18,0-1.1-.054-1.134-.054-.162,0-.5,0-.5.45,0,.072.036.486.4.54h1.4c1.08,0,1.476-.342,1.476-1.458V6.6c0-1.08-.36-1.476-1.458-1.476H130.8c-.054-.036-.288-.216-.342-.252A19.625,19.625,0,0,0,133.09,3.6c1.062-.63,1.26-.918,1.26-1.314,0-.774-.72-.774-1.206-.774h-8.262c-.252,0-.5.108-.5.414,0,.216.126.414.5.414h7.866c.18,0,.378,0,.378.162,0,.342-1.89,1.152-3.384,1.818a9.4,9.4,0,0,0-2.484-1.476.521.521,0,0,0-.468.486c0,.2.018.234.738.648.828.486,1.314.846,1.746,1.152Zm-.522,2.754V6.622a.6.6,0,0,1,.684-.684h3.258V7.882Zm4.878-1.944h3.24c.486,0,.666.252.666.684v1.26h-3.906Zm-.936,4.752h-3.942V8.728h3.942Zm4.842,0h-3.906V8.728h3.906ZM119.644,1.726c.036.126.072.144.468.432.63.486,1.224.99,1.8,1.53.576.558.63.63.828.63a.583.583,0,0,0,.54-.558c0-.252-.648-.81-.99-1.1a9.668,9.668,0,0,0-2.178-1.548A.513.513,0,0,0,119.644,1.726Zm7.542,14.454a6.664,6.664,0,0,1-2.97-.684,3.312,3.312,0,0,1-1.548-2.556V9.466c0-1.08-.378-1.458-1.458-1.458H119.7a.479.479,0,1,0,0,.954h1.278a.6.6,0,0,1,.684.684V13.84a9.523,9.523,0,0,1-1.782,1.926c-.684.576-.7.576-.7.774a.585.585,0,0,0,.522.594c.324,0,1.476-1.134,2.556-2.538.954,2.088,3.276,2.52,5.112,2.52h8.1c.252,0,.54-.09.54-.558,0-.288-.2-.378-.486-.378Z" transform="translate(1011.863 2592)"/><circle class="b" cx="11" cy="11" r="11" transform="translate(1408 2551)"/><path d="M74.626,6.046A12.421,12.421,0,0,1,72.268,12.4a14.224,14.224,0,0,1-4.77,3.816c-.27.126-.4.2-.4.414,0,.288.2.63.5.63.5,0,2.682-1.476,3.636-2.286a13.3,13.3,0,0,0,4.194-7.218,14.234,14.234,0,0,0,3.348,6.156c1.584,1.746,3.852,3.258,4.32,3.258a.617.617,0,0,0,.558-.612.356.356,0,0,0-.09-.252,6.658,6.658,0,0,0-.846-.522,13.947,13.947,0,0,1-6.768-9.738h7.326c.162,0,.54,0,.54-.5a.458.458,0,0,0-.54-.486H75.742V1.4c0-.306-.072-.54-.576-.54a.468.468,0,0,0-.522.54V5.056h-7.2a.451.451,0,0,0-.522.5.446.446,0,0,0,.522.486Zm-.2,6.93a.583.583,0,0,0-.63.522c0,.18.126.306.288.45a24.422,24.422,0,0,1,2.106,2.106c.7.792.7.81.918.81a.639.639,0,0,0,.612-.576c0-.162,0-.252-.72-1.008A13.583,13.583,0,0,0,74.428,12.976Zm47.232-10.4c-.4,0-.486.342-.522.558a28.558,28.558,0,0,0-.4,4.7c0,5.778,2.07,8.388,3.654,8.388,2.25,0,3.726-4.86,3.726-5.112a.509.509,0,0,0-.558-.45c-.306,0-.324.09-.594.81-.576,1.566-1.53,3.564-2.538,3.564-1.278,0-2.592-2.736-2.592-7.2a25.451,25.451,0,0,1,.234-3.438,11.327,11.327,0,0,0,.2-1.332C122.272,2.68,121.858,2.572,121.66,2.572Zm10.224,1.26a.518.518,0,0,0-.5.522c0,.126.072.2.576.954a14.359,14.359,0,0,1,2.2,7.146c.036.486.054.9.522.9.576,0,.576-.5.576-.846a14.858,14.858,0,0,0-1.26-5.742C133.666,6.028,132.514,3.832,131.884,3.832Z" transform="translate(1317 2592)"/><line class="a" y2="20" transform="translate(1113 2552.5)"/></g></svg>