<svg xmlns="http://www.w3.org/2000/svg" width="901.5" height="61.048" viewBox="0 0 901.5 61.048"><defs><style>.a{fill:none;stroke:#707070;}.b{fill:#ae9b3d;}</style></defs><g transform="translate(-663.5 -2410.5)"><line class="a" x2="901.5" transform="translate(663.5 2421)"/><path d="M54.664,4.642c-.306,0-.486.108-.486.414,0,.288.162.4.486.4H61.99A15.794,15.794,0,0,1,55.276,8.62c-.414.072-.648.144-.648.486a.515.515,0,0,0,.522.54,15.911,15.911,0,0,0,3.24-1.062A16.2,16.2,0,0,0,62.638,5.92V8.44c0,.684-.468.684-.738.684-.162,0-.972-.018-1.062-.018a.355.355,0,0,0-.36.378.493.493,0,0,0,.45.54c.054.018.666.018,1.008.018a.827.827,0,0,0-.018.18v.954H54.592c-.162,0-.5.018-.5.432s.288.432.5.432h6.516c-2.232,2.664-6.156,3.672-6.408,3.744-.342.09-.612.18-.612.5,0,.27.18.63.522.63A17.207,17.207,0,0,0,57.9,15.55a11.416,11.416,0,0,0,4.014-3.33v4.824a.429.429,0,0,0,.468.5c.432,0,.468-.306.468-.5v-4.7a11.624,11.624,0,0,0,3.96,3.24,18.741,18.741,0,0,0,3.222,1.35.611.611,0,0,0,.558-.648c0-.342-.288-.414-.612-.5-.252-.072-4.176-1.08-6.408-3.744h6.552c.126,0,.522,0,.522-.432s-.4-.432-.522-.432H62.854v-.954a.658.658,0,0,0-.054-.27c.666-.234.72-.864.72-1.386V5.452h5c.126,0,.288.018.288.18,0,.324-1.1,1.26-2.3,1.89-.864.468-.9.486-.9.7a.558.558,0,0,0,.486.522,7.691,7.691,0,0,0,2.664-1.6c.72-.576,1.314-1.116,1.314-1.728,0-.774-.774-.774-1.206-.774H63.628c-.054-.036-.288-.2-.324-.234a26.382,26.382,0,0,0,4.1-1.458c.648-.288.936-.522.936-.954,0-.7-.684-.7-1.116-.7H56.3c-.2,0-.486.054-.486.4,0,.306.144.432.486.432H66.508c.2,0,.234,0,.234.09,0,.054,0,.09-.162.162a25.848,25.848,0,0,1-4.194,1.4,10.7,10.7,0,0,0-2.448-1.206.47.47,0,0,0-.45.45c0,.216.036.234.81.594A15.8,15.8,0,0,1,62.17,4.642Zm30.33-2.754a.492.492,0,0,0,.432.468c.2.054,3.006.612,3.564.738.414.108,2.538.7,2.646.7.36,0,.432-.342.432-.522,0-.342-.144-.4-.738-.594A33.279,33.279,0,0,0,85.57,1.4C85.246,1.4,84.994,1.564,84.994,1.888ZM83.3,10.15c.108-.666.252-1.458.576-3.006.09-.414.648-2.736.648-2.79a.505.505,0,0,0-.54-.432c-.45,0-.468.108-.7,1.134-.324,1.458-1.08,5.4-1.08,5.9a.553.553,0,0,0,.576.612c.162,0,.378-.162.828-.5A10.658,10.658,0,0,1,90.052,8.71c1.458,0,4,.414,4,3.006,0,2-1.782,3.024-3.042,3.384a14.144,14.144,0,0,1-3.69.4,21.786,21.786,0,0,1-2.178-.108c-.072,0-.648-.072-.756-.072a.5.5,0,0,0-.108.99,18.021,18.021,0,0,0,2.97.2,12.976,12.976,0,0,0,4.86-.72,4.3,4.3,0,0,0,2.97-4.068c0-1.728-1.062-4-5.04-4A10.984,10.984,0,0,0,83.3,10.15Zm24.66-4.1c-.792.108-1.026.126-1.026.558,0,.234.108.54.45.54.018,0,3.4-.522,4.05-.612a31.27,31.27,0,0,1-3.366,8.532c-.4.63-.432.684-.432.918,0,.432.486.5.594.5.2,0,.324-.162.432-.306a14.568,14.568,0,0,0,.882-1.53A40.368,40.368,0,0,0,112.5,6.424c.378-.036.99-.09,1.584-.09,2.808,0,2.808,1.71,2.808,3.654,0,4.842-1.08,5.472-2.754,5.472a5.108,5.108,0,0,1-.972-.09c-.072-.018-.414-.072-.45-.072a.452.452,0,0,0-.432.486c0,.324.126.684,1.854.684,2.5,0,3.78-1.3,3.78-6.336,0-2.556-.18-4.752-3.96-4.752-.36,0-.882.018-1.224.054.09-.414.684-3.132.684-3.564,0-.342-.324-.468-.576-.468-.468,0-.5.252-.576.828-.162,1.116-.36,2.214-.612,3.312ZM118.654,3.4a.469.469,0,0,0-.5.432c0,.18.072.27.378.594a12.365,12.365,0,0,1,2.772,6.138c.072.612.108.846.54.846a.535.535,0,0,0,.576-.576,12.07,12.07,0,0,0-1.4-4.608C120.508,5.272,119.284,3.4,118.654,3.4Zm16.056-.828c-.4,0-.486.342-.522.558a28.559,28.559,0,0,0-.4,4.7c0,5.778,2.07,8.388,3.654,8.388,2.25,0,3.726-4.86,3.726-5.112a.509.509,0,0,0-.558-.45c-.306,0-.324.09-.594.81-.576,1.566-1.53,3.564-2.538,3.564-1.278,0-2.592-2.736-2.592-7.2a25.451,25.451,0,0,1,.234-3.438,11.327,11.327,0,0,0,.2-1.332C135.322,2.68,134.908,2.572,134.71,2.572Zm10.224,1.26a.518.518,0,0,0-.5.522c0,.126.072.2.576.954a14.359,14.359,0,0,1,2.2,7.146c.036.486.054.9.522.9.576,0,.576-.5.576-.846a14.858,14.858,0,0,0-1.26-5.742C146.716,6.028,145.564,3.832,144.934,3.832Z" transform="translate(706 2454)"/><line class="a" y2="20" transform="translate(807.514 2411)"/><path d="M81.142,11.968c0-1.08-.378-1.458-1.458-1.458H71.1c-1.116,0-1.458.4-1.458,1.458V15.64c0,1.1.378,1.458,1.458,1.458h8.586c1.1,0,1.458-.4,1.458-1.458Zm-10.566,1.4v-1.35c0-.45.2-.684.666-.684h8.28c.5,0,.684.252.684.684v1.35Zm9.63,2.214a.6.6,0,0,1-.684.684h-8.28c-.486,0-.666-.252-.666-.684V14.164h9.63ZM73.4,3.148a20.789,20.789,0,0,0-1.152-2.07C72.16.97,72.016.79,71.818.79c-.144,0-.54.108-.54.45,0,.108.036.162.288.594A9.913,9.913,0,0,1,72.3,3.148h-4.14a.429.429,0,0,0-.5.45c0,.432.378.432.5.432H73.33V8.242H67.642c-.144,0-.522,0-.522.45s.378.45.522.45h15.48c.144,0,.522,0,.522-.45s-.378-.45-.522-.45H77.488V4.03h5.2c.144,0,.5,0,.5-.45,0-.432-.36-.432-.5-.432H78.6a7.5,7.5,0,0,0,1.044-1.89c0-.306-.36-.45-.576-.45-.288,0-.378.2-.468.378a18.02,18.02,0,0,1-1.152,1.962Zm3.132,5.094h-2.25V4.03h2.25ZM69.946,4.408c-.144,0-.522.144-.522.432a.953.953,0,0,0,.144.414,16.437,16.437,0,0,1,.846,1.818c.288.7.306.774.594.774a.541.541,0,0,0,.576-.486,10.816,10.816,0,0,0-.954-2.2C70.306,4.534,70.234,4.408,69.946,4.408Zm10.746,0c-.27,0-.36.252-.4.36a17.507,17.507,0,0,1-.846,1.908c-.288.522-.306.594-.306.72,0,.306.36.45.54.45.288,0,.36-.162.612-.648a11.885,11.885,0,0,0,1.008-2.3A.546.546,0,0,0,80.692,4.408Zm45.4.72c-1.08,0-1.458.378-1.458,1.476V14.65c0,.144,0,.522.468.522.414,0,.468-.288.468-.522V11.536h3.942V14.38c0,.18,0,.522.468.522.432,0,.468-.342.468-.522V11.536h3.906V13.48c0,.63-.4.684-.684.684-.18,0-1.1-.054-1.134-.054-.162,0-.5,0-.5.45,0,.072.036.486.4.54h1.4c1.08,0,1.476-.342,1.476-1.458V6.6c0-1.08-.36-1.476-1.458-1.476H130.8c-.054-.036-.288-.216-.342-.252A19.625,19.625,0,0,0,133.09,3.6c1.062-.63,1.26-.918,1.26-1.314,0-.774-.72-.774-1.206-.774h-8.262c-.252,0-.5.108-.5.414,0,.216.126.414.5.414h7.866c.18,0,.378,0,.378.162,0,.342-1.89,1.152-3.384,1.818a9.4,9.4,0,0,0-2.484-1.476.521.521,0,0,0-.468.486c0,.2.018.234.738.648.828.486,1.314.846,1.746,1.152Zm-.522,2.754V6.622a.6.6,0,0,1,.684-.684h3.258V7.882Zm4.878-1.944h3.24c.486,0,.666.252.666.684v1.26h-3.906Zm-.936,4.752h-3.942V8.728h3.942Zm4.842,0h-3.906V8.728h3.906ZM119.644,1.726c.036.126.072.144.468.432.63.486,1.224.99,1.8,1.53.576.558.63.63.828.63a.583.583,0,0,0,.54-.558c0-.252-.648-.81-.99-1.1a9.668,9.668,0,0,0-2.178-1.548A.513.513,0,0,0,119.644,1.726Zm7.542,14.454a6.664,6.664,0,0,1-2.97-.684,3.312,3.312,0,0,1-1.548-2.556V9.466c0-1.08-.378-1.458-1.458-1.458H119.7a.479.479,0,1,0,0,.954h1.278a.6.6,0,0,1,.684.684V13.84a9.523,9.523,0,0,1-1.782,1.926c-.684.576-.7.576-.7.774a.585.585,0,0,0,.522.594c.324,0,1.476-1.134,2.556-2.538.954,2.088,3.276,2.52,5.112,2.52h8.1c.252,0,.54-.09.54-.558,0-.288-.2-.378-.486-.378Z" transform="translate(1011.863 2452)"/><line class="a" y2="20" transform="translate(1421.001 2411)"/><path d="M78.82,2.284h4.266c.162,0,.522,0,.522-.45,0-.432-.36-.45-.522-.45H73.942c-.18,0-.5.018-.5.45,0,.45.36.45.5.45H77.92V4.156H75.4c-1.116,0-1.476.4-1.476,1.458v4.05c0,1.1.378,1.458,1.476,1.458h2.448a5.083,5.083,0,0,1-.9,2.556A9.122,9.122,0,0,1,75.58,12.2c-.108-.144-.2-.252-.342-.252a.442.442,0,0,0-.45.432,6.751,6.751,0,0,0,1.62,2,8.123,8.123,0,0,1-3.33,2.088c-.18.072-.36.162-.36.45a.5.5,0,0,0,.5.522,8.6,8.6,0,0,0,3.87-2.484,11.712,11.712,0,0,0,3.816,1.98,12.277,12.277,0,0,0,2.358.486.518.518,0,0,0,.5-.558c0-.4-.252-.414-.522-.45a10.964,10.964,0,0,1-5.6-2.16,6.612,6.612,0,0,0,1.1-3.132H81.52c1.1,0,1.458-.4,1.458-1.458V5.614c0-1.1-.378-1.458-1.458-1.458h-2.7Zm-.9,4.878H74.9V5.668a.6.6,0,0,1,.684-.684h2.34Zm.9-2.178h2.52a.6.6,0,0,1,.684.684V7.162h-3.2Zm-.9,2.988v2.3H75.58c-.5,0-.684-.252-.684-.684V7.972Zm.9,0h3.2v1.62a.6.6,0,0,1-.684.684H78.82ZM70.162,6.82a3.608,3.608,0,0,0-.576.054A24.3,24.3,0,0,0,70.558,2.3h2.034c.144,0,.5,0,.5-.45a.434.434,0,0,0-.5-.468H67.624a.447.447,0,0,0-.522.468.442.442,0,0,0,.522.45H69.64a15.354,15.354,0,0,1-2.52,7.452.669.669,0,0,0-.162.414.553.553,0,0,0,.54.54.5.5,0,0,0,.4-.234,8.78,8.78,0,0,0,.81-1.4v5.958c0,1.08.378,1.458,1.458,1.458H71.35c1.116,0,1.476-.4,1.476-1.458V8.3c0-1.08-.378-1.476-1.476-1.476Zm1.746,8.262a.448.448,0,0,1-.5.5h-1.3c-.36,0-.486-.18-.486-.5V8.206c0-.342.162-.5.486-.5h1.3a.441.441,0,0,1,.5.5ZM121.66,2.572c-.4,0-.486.342-.522.558a28.558,28.558,0,0,0-.4,4.7c0,5.778,2.07,8.388,3.654,8.388,2.25,0,3.726-4.86,3.726-5.112a.509.509,0,0,0-.558-.45c-.306,0-.324.09-.594.81-.576,1.566-1.53,3.564-2.538,3.564-1.278,0-2.592-2.736-2.592-7.2a25.451,25.451,0,0,1,.234-3.438,11.327,11.327,0,0,0,.2-1.332C122.272,2.68,121.858,2.572,121.66,2.572Zm10.224,1.26a.518.518,0,0,0-.5.522c0,.126.072.2.576.954a14.359,14.359,0,0,1,2.2,7.146c.036.486.054.9.522.9.576,0,.576-.5.576-.846a14.858,14.858,0,0,0-1.26-5.742C133.666,6.028,132.514,3.832,131.884,3.832Z" transform="translate(1317 2452)"/><circle class="b" cx="11" cy="11" r="11" transform="translate(1103 2410.5)"/></g></svg>