<svg xmlns="http://www.w3.org/2000/svg" width="1920" height="603.356"><defs><style>.a{fill:#f7f8fa}</style></defs><path class="a" d="M1478.6 170.16v13.34h5.96v-1.92h-3.92v-11.42zm35.24 0h-7.36v13.34h7.36v-1.92h-5.32v-4.2h5.16v-1.92h-5.16v-3.38h5.32zm29.4 1.92v-1.92h-8.16v1.92h3.06v11.42h2.04v-11.42zm49.24 11.42h2.04v-5.76l4.38-7.58h-2.32l-3.08 5.34-3.08-5.34h-2.32l4.38 7.58zm33.72-13.58a6.767 6.767 0 00-6.94 6.92 6.94 6.94 0 0013.88 0 6.767 6.767 0 00-6.94-6.92zm0 11.96a4.774 4.774 0 01-4.9-5.04 4.9 4.9 0 119.8 0 4.774 4.774 0 01-4.9 5.04zm29.5-11.72v8.58a4.937 4.937 0 001.24 3.46 5.168 5.168 0 007.4 0 4.937 4.937 0 001.24-3.46v-8.58h-2.04v8.04a4.662 4.662 0 01-.42 2.3 2.918 2.918 0 01-4.96 0 4.662 4.662 0 01-.42-2.3v-8.04zm33.08 0v13.34h2.04v-5.46h.36l3.82 5.46h2.46l-4.16-5.7a3.659 3.659 0 002.96-3.72 3.722 3.722 0 00-1.58-3.14 5.974 5.974 0 00-3.52-.78zm2.04 1.88h.7c1 0 2.78.18 2.78 2.06 0 2.12-2.28 2.18-2.84 2.18h-.64zm55.34-1.88h-2.04v13.34h2.04v-6.14h5.72v6.14h2.04v-13.34h-2.04v5.28h-5.72zm40.2 13.34h2.2l-6.32-14.12-6.64 14.12h2.2l1.46-3.22h5.7zm-6.26-5.14l2.06-4.52 1.98 4.52zm30.14-8.2v13.34h2.04v-13.34zm25.24 0v13.34h2.04v-5.46h.36l3.82 5.46h2.46l-4.16-5.7a3.659 3.659 0 002.96-3.72 3.722 3.722 0 00-1.58-3.14 5.974 5.974 0 00-3.52-.78zm2.04 1.88h.7c1 0 2.78.18 2.78 2.06 0 2.12-2.28 2.18-2.84 2.18h-.64zm-358.92 51.52v13.34h2.76a7.655 7.655 0 004.88-1.28 6.361 6.361 0 002.68-5.38 6.6 6.6 0 00-2.56-5.38 7.769 7.769 0 00-4.96-1.3zm2.04 1.92h.88a5.976 5.976 0 013.56.92 4.753 4.753 0 011.8 3.84 4.7 4.7 0 01-1.82 3.8 5.776 5.776 0 01-3.54.94h-.88zm37.14-2.16a6.92 6.92 0 106.94 6.92 6.767 6.767 0 00-6.94-6.92zm0 11.96a5.042 5.042 0 114.9-5.04 4.774 4.774 0 01-4.9 5.04zm60.92-9.8v-1.92h-8.16v1.92h3.06v11.42h2.04v-11.42zm23.84-1.92h-2.04v13.34h2.04v-6.14h5.72v6.14h2.04v-13.34h-2.04v5.28h-5.72zm38.32 0h-7.36v13.34h7.36v-1.92h-5.32v-4.2h5.16v-1.92h-5.16v-3.38h5.32zm-155.5 55.32v-1.92h-8.16v1.92h3.06v11.42h2.04v-11.42zm30.24 11.42h2.2l-6.32-14.12-6.64 14.12h2.2l1.46-3.22h5.7zm-6.26-5.14l2.06-4.52 1.98 4.52zm30.14-8.2v13.34h5.96v-1.92h-3.92v-11.42zm29.92 0h-2.04v13.34h2.04v-5.52l.4-.4 4.76 5.92h2.72l-6.06-7.3 6.02-6.04h-2.68l-5.16 5.32zm29.68 0v13.34h2.04v-13.34zm27.28 13.34v-9.32l9.68 10.14v-14.16H1634v9.24l-9.68-10.14v14.24zm39.78-5.06h3.32a3.577 3.577 0 01-1.12 2.26 4.008 4.008 0 01-2.98 1.18 4.332 4.332 0 01-3.34-1.34 5.537 5.537 0 01.04-7.36 4.813 4.813 0 013.52-1.38 4.494 4.494 0 012.36.58 5.437 5.437 0 011.64 1.52l1.62-1.14a6.064 6.064 0 00-2.16-2 7.217 7.217 0 00-3.48-.84 7.1 7.1 0 00-4.98 12.02 5.813 5.813 0 004.54 1.82 6.237 6.237 0 004.54-1.7 7.282 7.282 0 001.98-5.4v-.1h-5.5zm27.66 4.1a1.2 1.2 0 101.2-1.2 1.2 1.2 0 00-1.2 1.2z"/><g transform="translate(1427)" opacity=".3" stroke="#fff" fill="none"><circle cx="246.5" cy="246.5" r="246.5" stroke="none"/><circle cx="246.5" cy="246.5" r="246"/></g><path d="M1731.758 285.692c-2.278-1.436 0 317.459 0 317.459l18.742-41.73" stroke="#fff" fill="none"/><path fill="#fff" opacity=".3" d="M0 230h1920v.951H0z"/><path class="a" d="M296.94 255h-2.1a13.338 13.338 0 00-2.24-2.03 6.748 6.748 0 00-3.92-.91 15.242 15.242 0 00-4.55.77q-2.45.77-5.6 1.75a68.1 68.1 0 01-7.07 1.75 45.152 45.152 0 01-8.68.77 47.177 47.177 0 01-17.15-3.22 46.555 46.555 0 01-15.75-10.5 60.613 60.613 0 01-11.48-16.24 48.522 48.522 0 01-4.62-21.7 53.753 53.753 0 013.78-20.02 53.779 53.779 0 0110.5-16.8 50.509 50.509 0 0115.82-11.55 46.21 46.21 0 0119.88-4.27 31.882 31.882 0 017.7.84 48.49 48.49 0 016.02 1.89q2.66 1.05 4.9 1.89a12.329 12.329 0 004.34.84 6.7 6.7 0 003.99-.91 14.911 14.911 0 002.17-2.03h2.1v28h-1.54a85 85 0 00-3.22-10.5 29.715 29.715 0 00-5.46-9.17 25.849 25.849 0 00-8.89-6.44 32.284 32.284 0 00-13.37-2.45 31.864 31.864 0 00-12.74 2.31 26.881 26.881 0 00-8.96 6.16 29.95 29.95 0 00-5.81 8.96 54.533 54.533 0 00-3.29 10.78 85.794 85.794 0 00-1.47 11.48q-.35 5.81-.35 10.99 0 14.7 2.38 24.36t6.65 15.26a22.867 22.867 0 0010.29 7.84 37.877 37.877 0 0013.3 2.24q9.38 0 15.12-2.66a25.64 25.64 0 009.24-6.93 30.474 30.474 0 005.32-9.66q1.82-5.39 3.22-10.71h1.54zm10.92-1.96h10.78V196.9h-10.78v-1.96h22.54v14.14h.28a28.506 28.506 0 011.82-4.76 20.784 20.784 0 013.5-5.11 19.934 19.934 0 015.39-4.13 16.026 16.026 0 017.63-1.68 13.783 13.783 0 015.6 1.05 12.1 12.1 0 013.92 2.66 9.779 9.779 0 012.24 3.71 13.213 13.213 0 01.7 4.2q0 4.62-2.1 6.16a8.063 8.063 0 01-4.9 1.54q-6.16 0-6.16-3.92a6.069 6.069 0 01.28-2.03q.28-.77.63-1.54a12.615 12.615 0 00.63-1.75 10.753 10.753 0 00.28-2.8q0-4.48-4.9-4.48a8.676 8.676 0 00-4.76 1.68 17.551 17.551 0 00-4.69 4.9 30.789 30.789 0 00-3.64 7.77 33.912 33.912 0 00-1.47 10.43v32.06h12.18V255h-35zm102.48-34.72a25.849 25.849 0 00.28-3.64v-3.5a28.238 28.238 0 00-.91-7.84 12.748 12.748 0 00-2.52-4.9 8.9 8.9 0 00-3.92-2.59 15.621 15.621 0 00-4.97-.77 14.778 14.778 0 00-7.84 1.89 13.923 13.923 0 00-4.9 5.11 26.322 26.322 0 00-2.73 7.42 58.262 58.262 0 00-1.19 8.82zm-28.84 1.96q0 1.4-.07 2.87t-.07 3.71a87.563 87.563 0 00.56 9.66 29.017 29.017 0 002.45 9.1 16.961 16.961 0 005.6 6.72q3.71 2.66 9.87 2.66a24.538 24.538 0 0010.15-1.82 18.68 18.68 0 006.3-4.41 19.1 19.1 0 003.43-5.25q1.12-2.66 1.68-4.34l2.1.42a40.213 40.213 0 01-1.61 4.41 20.283 20.283 0 01-3.78 5.74 22.92 22.92 0 01-7 5.04 25.9 25.9 0 01-11.41 2.17 36.468 36.468 0 01-12.95-2.24 29.6 29.6 0 01-10.29-6.44 29.1 29.1 0 01-6.72-10.01 33.869 33.869 0 01-2.38-12.95 30.522 30.522 0 012.45-11.97 33.83 33.83 0 016.72-10.29 33.67 33.67 0 0110.01-7.21 28.318 28.318 0 0112.32-2.73 28.235 28.235 0 018.4 1.4 24.735 24.735 0 018.33 4.55 25 25 0 016.44 8.33 28.652 28.652 0 012.59 12.88zm91.98.42h-.28q-.28 1.82-4.62 3.64l-10.5 4.2a15.307 15.307 0 00-6.86 5.11 13.607 13.607 0 00-2.38 8.19 23.538 23.538 0 00.42 4.34 11.123 11.123 0 001.54 3.99 8.546 8.546 0 003.15 2.87 10.813 10.813 0 005.25 1.12 13.032 13.032 0 007.49-1.96 12.828 12.828 0 004.34-4.9 20.68 20.68 0 001.96-6.37 44.4 44.4 0 00.49-6.23zm24.5 32.76a19.182 19.182 0 01-4.34 2.45 16.027 16.027 0 01-6.16 1.05q-6.72 0-9.73-2.87a15.239 15.239 0 01-4.13-8.05h-.28q-.56 1.26-1.54 3.15a12.485 12.485 0 01-3.01 3.64 16.755 16.755 0 01-5.39 2.94 25.947 25.947 0 01-8.54 1.19 27.038 27.038 0 01-9.38-1.33 15.3 15.3 0 01-5.46-3.29 9.544 9.544 0 01-2.59-4.41 18.346 18.346 0 01-.63-4.55 13.933 13.933 0 011.96-7.84 14.516 14.516 0 015.11-4.69 33.812 33.812 0 017-2.87q3.85-1.12 7.77-2.38 4.62-1.54 7.63-2.66a13.522 13.522 0 004.69-2.73 8.377 8.377 0 002.31-4.06 27.815 27.815 0 00.63-6.65 38.871 38.871 0 00-.42-6.02 12.758 12.758 0 00-1.54-4.55 7.152 7.152 0 00-3.22-2.87 13.4 13.4 0 00-5.6-.98 16.078 16.078 0 00-7.63 1.61 5.508 5.508 0 00-3.01 5.25 26.165 26.165 0 00.42 4.69 21.27 21.27 0 01.42 3.43 4.356 4.356 0 01-1.4 3.29 5.675 5.675 0 01-4.06 1.33q-4.62 0-5.74-1.68a7.682 7.682 0 01-1.12-4.34 12.981 12.981 0 011.4-5.88 14.813 14.813 0 014.13-4.97 20.544 20.544 0 016.86-3.43 32.4 32.4 0 019.45-1.26 31.241 31.241 0 0110.78 1.61 18.645 18.645 0 017 4.34 15.765 15.765 0 013.78 6.16 23.08 23.08 0 011.12 7.21v34.86q0 4.06 1.26 5.46a4.645 4.645 0 003.64 1.4 10.174 10.174 0 003.22-.56 11.817 11.817 0 003.22-1.68zm2.8-58.52h10.78v-18.06q1.12.42 2.1.7a13.837 13.837 0 003.36.28 12.055 12.055 0 003.64-.49 9.135 9.135 0 002.94-1.61v19.18h19.88v1.96H523.6v45.78a21.751 21.751 0 00.77 6.37 9.62 9.62 0 002.03 3.78 6.075 6.075 0 002.73 1.75 10.421 10.421 0 002.87.42 9.843 9.843 0 007.91-3.57 17.289 17.289 0 003.85-8.19l1.96.7a32.572 32.572 0 01-1.26 4.06 14.159 14.159 0 01-2.59 4.27 13.607 13.607 0 01-4.55 3.36 16.287 16.287 0 01-7 1.33q-10.5 0-14.63-4.06t-4.13-11.48V196.9h-10.78zm93.52 23.38a25.847 25.847 0 00.28-3.64v-3.5a28.238 28.238 0 00-.91-7.84 12.748 12.748 0 00-2.52-4.9 8.9 8.9 0 00-3.92-2.59 15.621 15.621 0 00-4.97-.77 14.778 14.778 0 00-7.84 1.89 13.923 13.923 0 00-4.9 5.11 26.322 26.322 0 00-2.73 7.42 58.266 58.266 0 00-1.19 8.82zm-28.84 1.96q0 1.4-.07 2.87t-.07 3.71a87.559 87.559 0 00.56 9.66 29.017 29.017 0 002.45 9.1 16.961 16.961 0 005.6 6.72q3.71 2.66 9.87 2.66a24.538 24.538 0 0010.15-1.82 18.68 18.68 0 006.3-4.41 19.1 19.1 0 003.43-5.25q1.12-2.66 1.68-4.34l2.1.42a40.208 40.208 0 01-1.61 4.41 20.283 20.283 0 01-3.78 5.74 22.919 22.919 0 01-7 5.04 25.9 25.9 0 01-11.41 2.17 36.468 36.468 0 01-12.95-2.24 29.6 29.6 0 01-10.29-6.44 29.1 29.1 0 01-6.72-10.01 33.869 33.869 0 01-2.38-12.95 30.522 30.522 0 012.45-11.97 33.83 33.83 0 016.72-10.29 33.669 33.669 0 0110.01-7.21 28.318 28.318 0 0112.32-2.73 28.235 28.235 0 018.4 1.4 24.735 24.735 0 018.33 4.55 25 25 0 016.44 8.33 28.652 28.652 0 012.59 12.88zM747.88 255h-2.1a13.339 13.339 0 00-2.24-2.03 6.748 6.748 0 00-3.92-.91 15.242 15.242 0 00-4.55.77q-2.45.77-5.6 1.75a68.1 68.1 0 01-7.07 1.75 45.153 45.153 0 01-8.68.77 47.177 47.177 0 01-17.15-3.22 46.554 46.554 0 01-15.75-10.5 60.613 60.613 0 01-11.48-16.24 48.522 48.522 0 01-4.62-21.7 53.754 53.754 0 013.78-20.02 53.779 53.779 0 0110.5-16.8 50.509 50.509 0 0115.82-11.55 46.21 46.21 0 0119.88-4.27 31.883 31.883 0 017.7.84 48.488 48.488 0 016.02 1.89q2.66 1.05 4.9 1.89a12.329 12.329 0 004.34.84 6.7 6.7 0 003.99-.91 14.91 14.91 0 002.17-2.03h2.1v28h-1.54a85.005 85.005 0 00-3.22-10.5 29.716 29.716 0 00-5.46-9.17 25.849 25.849 0 00-8.89-6.44 32.284 32.284 0 00-13.37-2.45 31.864 31.864 0 00-12.74 2.31 26.881 26.881 0 00-8.96 6.16 29.95 29.95 0 00-5.81 8.96 54.534 54.534 0 00-3.29 10.78 85.789 85.789 0 00-1.47 11.48q-.35 5.81-.35 10.99 0 14.7 2.38 24.36t6.65 15.26a22.867 22.867 0 0010.29 7.84 37.877 37.877 0 0013.3 2.24q9.38 0 15.12-2.66a25.64 25.64 0 009.24-6.93 30.475 30.475 0 005.32-9.66q1.82-5.39 3.22-10.71h1.54zm27.44-29.96a64.848 64.848 0 001.54 15.82 24.331 24.331 0 004.06 9.03 11.7 11.7 0 005.88 4.13 25.381 25.381 0 007.14.98 25.381 25.381 0 007.14-.98 11.7 11.7 0 005.88-4.13 24.331 24.331 0 004.06-9.03 64.849 64.849 0 001.54-15.82 74.242 74.242 0 00-1.12-14.07 26.375 26.375 0 00-3.43-9.24 13.236 13.236 0 00-5.81-5.11 20.385 20.385 0 00-8.26-1.54 20.385 20.385 0 00-8.26 1.54 13.236 13.236 0 00-5.81 5.11 26.375 26.375 0 00-3.43 9.24 74.242 74.242 0 00-1.12 14.07zm-14 0a27.553 27.553 0 013.01-12.74 35.4 35.4 0 017.7-10.15 35.446 35.446 0 0110.5-6.65 29.962 29.962 0 0111.41-2.38 29.962 29.962 0 0111.41 2.38 35.446 35.446 0 0110.5 6.65 35.4 35.4 0 017.7 10.15 27.553 27.553 0 013.01 12.74 28.173 28.173 0 01-2.8 12.39 34.729 34.729 0 01-7.35 10.15 34.891 34.891 0 01-10.43 6.86 30.288 30.288 0 01-12.04 2.52 30.288 30.288 0 01-12.04-2.52 34.891 34.891 0 01-10.43-6.86 34.731 34.731 0 01-7.35-10.15 28.173 28.173 0 01-2.8-12.39zm91.84 0a64.848 64.848 0 001.54 15.82 24.331 24.331 0 004.06 9.03 11.7 11.7 0 005.88 4.13 25.381 25.381 0 007.14.98 25.381 25.381 0 007.14-.98 11.7 11.7 0 005.88-4.13 24.331 24.331 0 004.06-9.03 64.849 64.849 0 001.54-15.82 74.242 74.242 0 00-1.12-14.07 26.375 26.375 0 00-3.43-9.24 13.236 13.236 0 00-5.81-5.11 20.385 20.385 0 00-8.26-1.54 20.385 20.385 0 00-8.26 1.54 13.236 13.236 0 00-5.81 5.11 26.375 26.375 0 00-3.43 9.24 74.242 74.242 0 00-1.12 14.07zm-14 0a27.553 27.553 0 013.01-12.74 35.4 35.4 0 017.7-10.15 35.446 35.446 0 0110.5-6.65 29.962 29.962 0 0111.41-2.38 29.962 29.962 0 0111.41 2.38 35.446 35.446 0 0110.5 6.65 35.4 35.4 0 017.7 10.15 27.553 27.553 0 013.01 12.74 28.173 28.173 0 01-2.8 12.39 34.729 34.729 0 01-7.35 10.15 34.891 34.891 0 01-10.43 6.86 30.288 30.288 0 01-12.04 2.52 30.288 30.288 0 01-12.04-2.52 34.891 34.891 0 01-10.43-6.86 34.731 34.731 0 01-7.35-10.15 28.173 28.173 0 01-2.8-12.39zm75.46 28h10.78v-97.02h-10.78v-1.96h22.82v98.98h10.78V255h-33.6zm41.02 0h10.78V196.9h-10.78v-1.96h22.54v14.98h.28q.84-1.82 2.45-4.62a24.373 24.373 0 014.41-5.46 24.868 24.868 0 017-4.55 24.825 24.825 0 0110.22-1.89q9.24 0 15.05 4.48t5.81 14.28v40.88h10.78V255h-33.6v-1.96h10.78v-45.22a14.67 14.67 0 00-2.59-8.96q-2.59-3.5-8.05-3.5a19.4 19.4 0 00-8.54 1.96 22.437 22.437 0 00-7.14 5.46 25.87 25.87 0 00-4.83 8.26 29.8 29.8 0 00-1.75 10.36v31.64h10.78V255h-33.6zm131.32-34.72a25.842 25.842 0 00.28-3.64v-3.5a28.239 28.239 0 00-.91-7.84 12.749 12.749 0 00-2.52-4.9 8.9 8.9 0 00-3.92-2.59 15.621 15.621 0 00-4.97-.77 14.778 14.778 0 00-7.84 1.89 13.923 13.923 0 00-4.9 5.11 26.321 26.321 0 00-2.73 7.42 58.258 58.258 0 00-1.19 8.82zm-28.84 1.96q0 1.4-.07 2.87t-.07 3.71a87.559 87.559 0 00.56 9.66 29.017 29.017 0 002.45 9.1 16.961 16.961 0 005.6 6.72q3.71 2.66 9.87 2.66a24.538 24.538 0 0010.15-1.82 18.68 18.68 0 006.3-4.41 19.1 19.1 0 003.43-5.25q1.12-2.66 1.68-4.34l2.1.42a40.2 40.2 0 01-1.61 4.41 20.283 20.283 0 01-3.78 5.74 22.919 22.919 0 01-7 5.04 25.9 25.9 0 01-11.41 2.17 36.468 36.468 0 01-12.95-2.24 29.6 29.6 0 01-10.29-6.44 29.1 29.1 0 01-6.72-10.01 33.869 33.869 0 01-2.38-12.95 30.521 30.521 0 012.45-11.97 33.831 33.831 0 016.72-10.29 33.67 33.67 0 0110.01-7.21 28.319 28.319 0 0112.32-2.73 28.235 28.235 0 018.4 1.4 24.735 24.735 0 018.33 4.55 25 25 0 016.44 8.33 28.652 28.652 0 012.59 12.88zm57.4 15.12h1.54a52.429 52.429 0 002.52 6.79 24.087 24.087 0 004.13 6.3 20.355 20.355 0 006.37 4.69 20.819 20.819 0 009.1 1.82 12.626 12.626 0 007.98-2.73q3.5-2.73 3.5-8.89 0-5.32-2.73-7.49a21.371 21.371 0 00-6.37-3.43l-10.92-3.78q-2.1-.7-4.55-1.75a16.5 16.5 0 01-4.55-2.94 14.338 14.338 0 01-3.43-4.83 18.447 18.447 0 01-1.33-7.56 17.261 17.261 0 011.54-7.28 18.827 18.827 0 014.2-5.88 18.777 18.777 0 016.37-3.92 22.619 22.619 0 018.05-1.4 20.443 20.443 0 014.97.49q1.89.49 3.29.98t2.52.98a6.6 6.6 0 002.66.49 2.444 2.444 0 002.24-1.12h1.54v15.96h-1.54a60.171 60.171 0 00-2.24-5.95 23.781 23.781 0 00-3.01-5.11 12.208 12.208 0 00-4.34-3.5 13.777 13.777 0 00-6.09-1.26q-6.72 0-10.43 3.01a9.836 9.836 0 00-3.71 8.05 7.888 7.888 0 003.15 6.79 33.017 33.017 0 009.31 4.27l10.22 3.36a29.462 29.462 0 0110.78 6.16 13.5 13.5 0 014.2 10.36 19.655 19.655 0 01-1.47 7.42 18 18 0 01-4.34 6.37 22.114 22.114 0 01-7 4.41 24.915 24.915 0 01-9.45 1.68 23.975 23.975 0 01-5.67-.63q-2.59-.63-4.76-1.33t-3.99-1.33a10.332 10.332 0 00-3.36-.63 3.294 3.294 0 00-2.24.63 5.854 5.854 0 00-1.12 1.33h-1.54zm59.64 0h1.54a52.429 52.429 0 002.52 6.79 24.087 24.087 0 004.13 6.3 20.355 20.355 0 006.37 4.69 20.819 20.819 0 009.1 1.82 12.626 12.626 0 007.98-2.73q3.5-2.73 3.5-8.89 0-5.32-2.73-7.49a21.371 21.371 0 00-6.37-3.43l-10.92-3.78q-2.1-.7-4.55-1.75a16.5 16.5 0 01-4.55-2.94 14.338 14.338 0 01-3.43-4.83 18.447 18.447 0 01-1.33-7.56 17.261 17.261 0 011.54-7.28 18.827 18.827 0 014.2-5.88 18.777 18.777 0 016.37-3.92 22.619 22.619 0 018.05-1.4 20.443 20.443 0 014.97.49q1.89.49 3.29.98t2.52.98a6.6 6.6 0 002.66.49 2.444 2.444 0 002.24-1.12h1.54v15.96h-1.54a60.171 60.171 0 00-2.24-5.95 23.781 23.781 0 00-3.01-5.11 12.208 12.208 0 00-4.34-3.5 13.777 13.777 0 00-6.09-1.26q-6.72 0-10.43 3.01a9.836 9.836 0 00-3.71 8.05 7.888 7.888 0 003.15 6.79 33.017 33.017 0 009.31 4.27l10.22 3.36a29.462 29.462 0 0110.78 6.16 13.5 13.5 0 014.2 10.36 19.655 19.655 0 01-1.47 7.42 18 18 0 01-4.34 6.37 22.114 22.114 0 01-7 4.41 24.915 24.915 0 01-9.45 1.68 23.975 23.975 0 01-5.67-.63q-2.59-.63-4.76-1.33t-3.99-1.33a10.332 10.332 0 00-3.36-.63 3.294 3.294 0 00-2.24.63 5.854 5.854 0 00-1.12 1.33h-1.54zm63.84-34.58a7.152 7.152 0 012.17-5.25 7.151 7.151 0 015.25-2.17 7.151 7.151 0 015.25 2.17 7.151 7.151 0 012.17 5.25 7.151 7.151 0 01-2.17 5.25 7.151 7.151 0 01-5.25 2.17 7.151 7.151 0 01-5.25-2.17 7.152 7.152 0 01-2.17-5.25zm0 48.3a7.152 7.152 0 012.17-5.25 7.151 7.151 0 015.25-2.17 7.151 7.151 0 015.25 2.17 7.151 7.151 0 012.17 5.25 7.151 7.151 0 01-2.17 5.25 7.151 7.151 0 01-5.25 2.17 7.151 7.151 0 01-5.25-2.17 7.152 7.152 0 01-2.17-5.25zM340.782 370.44h15.54v-95.76h-15.54v-1.96h45.08v1.96h-15.54v95.76h15.54v1.96h-45.08zm52.08-58.1h10.78v-18.06q1.12.42 2.1.7a13.838 13.838 0 003.36.28 12.054 12.054 0 003.64-.49 9.135 9.135 0 002.94-1.61v19.18h19.88v1.96h-19.88v45.78a21.751 21.751 0 00.77 6.37 9.62 9.62 0 002.03 3.78 6.075 6.075 0 002.73 1.75 10.421 10.421 0 002.87.42 9.843 9.843 0 007.91-3.57 17.289 17.289 0 003.85-8.19l1.96.7a32.575 32.575 0 01-1.26 4.06 14.159 14.159 0 01-2.59 4.27 13.607 13.607 0 01-4.55 3.36 16.287 16.287 0 01-7 1.33q-10.5 0-14.63-4.06t-4.13-11.48V314.3h-10.78zm96.18-32.62a7.42 7.42 0 1112.67 5.25 7.42 7.42 0 01-12.67-5.25zm-9.1 90.72h10.78V314.3h-10.78v-1.96h22.82v58.1h10.78v1.96h-33.6zM525.3 352.8h1.54a52.438 52.438 0 002.52 6.79 24.088 24.088 0 004.13 6.3 20.356 20.356 0 006.37 4.69 20.819 20.819 0 009.1 1.82 12.626 12.626 0 007.98-2.73q3.5-2.73 3.5-8.89 0-5.32-2.73-7.49a21.372 21.372 0 00-6.37-3.43l-10.92-3.78q-2.1-.7-4.55-1.75a16.494 16.494 0 01-4.55-2.94 14.338 14.338 0 01-3.43-4.83 18.448 18.448 0 01-1.33-7.56 17.262 17.262 0 011.54-7.28 18.556 18.556 0 0110.57-9.8 22.619 22.619 0 018.05-1.4 20.444 20.444 0 014.97.49q1.89.49 3.29.98t2.52.98a6.6 6.6 0 002.66.49 2.444 2.444 0 002.24-1.12h1.54v15.96h-1.54a60.186 60.186 0 00-2.24-5.95 23.781 23.781 0 00-3.01-5.11 12.208 12.208 0 00-4.34-3.5 13.778 13.778 0 00-6.09-1.26q-6.72 0-10.43 3.01a9.836 9.836 0 00-3.71 8.05 7.888 7.888 0 003.15 6.79 33.017 33.017 0 009.31 4.27l10.22 3.36a29.461 29.461 0 0110.78 6.16 13.5 13.5 0 014.2 10.36 19.654 19.654 0 01-1.47 7.42 18 18 0 01-4.34 6.37 22.113 22.113 0 01-7 4.41 24.916 24.916 0 01-9.45 1.68 23.975 23.975 0 01-5.67-.63q-2.59-.63-4.76-1.33t-3.99-1.33a10.332 10.332 0 00-3.36-.63 3.294 3.294 0 00-2.24.63 5.855 5.855 0 00-1.12 1.33h-1.54zm90.16-40.46h33.74v1.96h-11.62l15.68 43.68 14.56-34.58-3.5-9.1h-5.88v-1.96h27.86v1.96h-9.38l16.24 43.4 17.5-43.4H697.5v-1.96h22.82v1.96h-7.42l-25.06 62.72-19.04-50.82-21.28 50.82-22.538-62.72h-9.52zm107.8 58.1h10.78v-97.02h-10.78v-1.96h22.82v55.02h.28a29.134 29.134 0 012.38-4.55 22.127 22.127 0 014.55-5.18 26.794 26.794 0 017-4.2 25.218 25.218 0 019.87-1.75q9.24 0 15.05 4.48t5.81 14.28v40.88h10.78v1.96h-33.6v-1.96h10.78v-45.22a14.669 14.669 0 00-2.59-8.96q-2.59-3.5-8.05-3.5a19.4 19.4 0 00-8.54 1.96 22.437 22.437 0 00-7.14 5.46 25.87 25.87 0 00-4.83 8.26 29.8 29.8 0 00-1.75 10.36v31.64h10.78v1.96h-33.6zm124.462-32.34h-.28q-.28 1.82-4.62 3.64l-10.5 4.2a15.307 15.307 0 00-6.86 5.11 13.608 13.608 0 00-2.38 8.19 23.54 23.54 0 00.42 4.34 11.123 11.123 0 001.54 3.99 8.546 8.546 0 003.15 2.87 10.813 10.813 0 005.25 1.12 13.032 13.032 0 007.49-1.96 12.827 12.827 0 004.34-4.9 20.68 20.68 0 001.96-6.37 44.4 44.4 0 00.49-6.23zm24.5 32.76a19.183 19.183 0 01-4.34 2.45 16.027 16.027 0 01-6.16 1.05q-6.72 0-9.73-2.87a15.239 15.239 0 01-4.13-8.05h-.28q-.56 1.26-1.54 3.15a12.485 12.485 0 01-3.01 3.64 16.754 16.754 0 01-5.39 2.94 25.947 25.947 0 01-8.54 1.19 27.038 27.038 0 01-9.38-1.33 15.3 15.3 0 01-5.46-3.29 9.544 9.544 0 01-2.59-4.41 18.347 18.347 0 01-.63-4.55 13.933 13.933 0 011.958-7.84 14.515 14.515 0 015.11-4.69 33.813 33.813 0 017-2.87q3.85-1.12 7.77-2.38 4.62-1.54 7.63-2.66a13.523 13.523 0 004.69-2.73 8.377 8.377 0 002.31-4.06 27.816 27.816 0 00.63-6.65 38.867 38.867 0 00-.42-6.02 12.758 12.758 0 00-1.54-4.55 7.152 7.152 0 00-3.22-2.87 13.4 13.4 0 00-5.6-.98 16.078 16.078 0 00-7.63 1.61 5.508 5.508 0 00-3.01 5.25 26.162 26.162 0 00.42 4.69 21.273 21.273 0 01.42 3.43 4.356 4.356 0 01-1.4 3.29 5.674 5.674 0 01-4.06 1.33q-4.62 0-5.74-1.68a7.682 7.682 0 01-1.12-4.34 12.981 12.981 0 011.4-5.88 14.812 14.812 0 014.13-4.97 20.544 20.544 0 016.86-3.43 32.4 32.4 0 019.45-1.26 31.241 31.241 0 0110.78 1.61 18.645 18.645 0 017 4.34 15.765 15.765 0 013.78 6.16 23.081 23.081 0 011.12 7.21v34.86q0 4.06 1.26 5.46a4.645 4.645 0 003.64 1.4 10.174 10.174 0 003.22-.56 11.817 11.817 0 003.22-1.68zm2.8-58.52H885.8v-18.06q1.12.42 2.1.7a13.837 13.837 0 003.36.28 12.055 12.055 0 003.64-.49 9.135 9.135 0 002.94-1.61v19.18h19.88v1.96h-19.88v45.78a21.752 21.752 0 00.77 6.37 9.62 9.62 0 002.03 3.78 6.075 6.075 0 002.73 1.75 10.422 10.422 0 002.87.42 9.843 9.843 0 007.91-3.57 17.289 17.289 0 003.85-8.19l1.96.7a32.567 32.567 0 01-1.26 4.06 14.158 14.158 0 01-2.59 4.27 13.607 13.607 0 01-4.55 3.36 16.287 16.287 0 01-7 1.33q-10.5 0-14.63-4.06t-4.13-11.48V314.3h-10.78zm82.6 0h33.74v1.96h-11.62l15.68 43.68 14.56-34.58-3.5-9.1h-5.882v-1.96h27.86v1.96h-9.38l16.24 43.4 17.5-43.4h-13.16v-1.96h22.82v1.96h-7.42L1030 377.02l-19.038-50.82-21.28 50.82-22.54-62.72h-9.52zm152.178 23.38a25.851 25.851 0 00.28-3.64v-3.5a28.239 28.239 0 00-.91-7.84 12.749 12.749 0 00-2.52-4.9 8.9 8.9 0 00-3.92-2.59 15.621 15.621 0 00-4.97-.77 14.778 14.778 0 00-7.84 1.89 13.923 13.923 0 00-4.9 5.11 26.322 26.322 0 00-2.73 7.42 58.258 58.258 0 00-1.19 8.82zm-28.84 1.96q0 1.4-.07 2.87t-.07 3.71a87.559 87.559 0 00.56 9.66 29.017 29.017 0 002.45 9.1 16.961 16.961 0 005.6 6.72q3.71 2.66 9.87 2.66a24.538 24.538 0 0010.15-1.82 18.68 18.68 0 006.3-4.41 19.1 19.1 0 003.43-5.25q1.12-2.66 1.68-4.34l2.1.42a40.2 40.2 0 01-1.61 4.41 20.283 20.283 0 01-3.78 5.74 22.919 22.919 0 01-7 5.04 25.9 25.9 0 01-11.41 2.17 36.468 36.468 0 01-12.95-2.24 29.6 29.6 0 01-10.29-6.44 29.1 29.1 0 01-6.72-10.01 33.869 33.869 0 01-2.38-12.95 30.521 30.521 0 012.45-11.97 33.643 33.643 0 0116.73-17.5 27.765 27.765 0 0120.72-1.33 24.736 24.736 0 018.33 4.55 25 25 0 016.44 8.33 28.652 28.652 0 012.59 12.88zm109.76 2.66q0 7.28.42 13.23a33.85 33.85 0 002.1 10.15 13.515 13.515 0 005.04 6.44q3.36 2.24 9.1 2.24 5.88 0 9.45-2.52a17.016 17.016 0 005.53-6.51 29.489 29.489 0 002.66-8.89 67.3 67.3 0 00.7-9.52q0-5.46-.21-9.45a56.487 56.487 0 00-.77-7.07 24.065 24.065 0 00-1.54-5.32 23.206 23.206 0 00-2.38-4.2 16.561 16.561 0 00-5.46-4.62 17.814 17.814 0 00-8.54-1.82 15.015 15.015 0 00-8.05 1.96 13.081 13.081 0 00-4.9 5.6 29.394 29.394 0 00-2.45 8.75 85.762 85.762 0 00-.698 11.55zm24.22-68.88h22.82v98.98h10.78v1.96H1226v-12.18h-.28a38.314 38.314 0 01-1.68 4.06 17.259 17.259 0 01-3.29 4.62 19.346 19.346 0 01-5.46 3.85 18.2 18.2 0 01-8.05 1.61 26.633 26.633 0 01-11.69-2.66 32.589 32.589 0 01-9.73-7.14 34.518 34.518 0 01-6.65-10.29 31.748 31.748 0 01-.07-24.29 32.173 32.173 0 0115.82-16.87 25.57 25.57 0 0111.34-2.59q7.7 0 12.46 3.78a20.471 20.471 0 016.72 9.24h.28v-50.12h-10.78zm57.82 70.98a64.852 64.852 0 001.54 15.82 24.331 24.331 0 004.06 9.03 11.7 11.7 0 005.88 4.13 26.5 26.5 0 0014.28 0 11.7 11.7 0 005.88-4.13 24.331 24.331 0 004.06-9.03 64.845 64.845 0 001.54-15.82 74.237 74.237 0 00-1.12-14.07 26.375 26.375 0 00-3.43-9.24 13.235 13.235 0 00-5.81-5.11 22.922 22.922 0 00-16.52 0 13.236 13.236 0 00-5.81 5.11 26.378 26.378 0 00-3.43 9.24 74.237 74.237 0 00-1.118 14.07zm-14 0a27.552 27.552 0 013.01-12.74 35.416 35.416 0 0118.2-16.8 28.54 28.54 0 0122.82 0 35.416 35.416 0 0118.2 16.8 27.552 27.552 0 013.01 12.74 28.173 28.173 0 01-2.8 12.39 34.715 34.715 0 01-17.78 17.01 30.022 30.022 0 01-24.08 0 34.715 34.715 0 01-17.78-17.01 28.174 28.174 0 01-2.798-12.39zm75.88 24.08a7.409 7.409 0 112.17 5.25 7.151 7.151 0 01-2.168-5.25z"/></svg>