<svg xmlns="http://www.w3.org/2000/svg" width="47" height="81.156" viewBox="0 0 47 81.156"><defs><style>.a{fill:#e7e7e7;}</style></defs><g transform="translate(-915 -3194.844)"><path d="M87.388,4.048V1.42c0-.2-.018-.522-.522-.522a.454.454,0,0,0-.5.522V4.048H80.926c-.144,0-.522,0-.522.468a.447.447,0,0,0,.522.468h5.418a22.239,22.239,0,0,1-.5,4.428A17.045,17.045,0,0,0,82.348,7.4a.582.582,0,0,0-.522.558c0,.252.2.36.378.45a28.219,28.219,0,0,1,3.348,2.052,10.656,10.656,0,0,1-5.058,5.778c-.18.108-.36.216-.36.45a.613.613,0,0,0,.558.63,7.727,7.727,0,0,0,2.268-1.4,10.931,10.931,0,0,0,3.456-4.824,21.99,21.99,0,0,1,2.52,2.25.657.657,0,0,0,.468.288.6.6,0,0,0,.54-.576c0-.18-.09-.306-.288-.5A27.6,27.6,0,0,0,86.74,10.06a21.648,21.648,0,0,0,.63-5.076h3.6a.816.816,0,0,1,.936.936v9.342c0,.612.036,1.422.846,1.692.36.126.45.126,2.07.126.828,0,1.512-.054,1.71-1.116a21.64,21.64,0,0,0,.252-3.024c0-.288-.036-.684-.576-.684-.468,0-.486.342-.486.612a18.961,18.961,0,0,1-.18,2.754c-.162.5-.27.5-1.548.5-.432,0-1.062,0-1.062-.936V5.866c0-1.386-.5-1.818-1.818-1.818ZM114.01,2.32h1.206c.216,0,.522-.036.522-.486s-.342-.468-.522-.468h-8.064a.449.449,0,0,0-.522.486c0,.468.378.468.522.468h1.422v5h-1.728c-.144,0-.522,0-.522.468a.447.447,0,0,0,.522.468h1.728v.594c0,3.8-.9,5.9-2.052,7.452a.581.581,0,0,0-.18.4.629.629,0,0,0,.63.576c.306,0,.54-.378.864-.936a14.6,14.6,0,0,0,1.728-7.506V8.26h3.456v8.73c0,.216.018.522.486.522a.448.448,0,0,0,.5-.522V8.26h1.44c.234,0,.522-.054.522-.468,0-.45-.342-.468-.522-.468h-1.44Zm-.99,5h-3.456v-5h3.456ZM121.678,1.4a.576.576,0,0,0-.54-.558c-.2,0-.306.144-.432.288A14.012,14.012,0,0,1,115.738,4.7c-.2.09-.36.162-.36.4a.6.6,0,0,0,.5.594,12.012,12.012,0,0,0,3.2-1.8A10.306,10.306,0,0,0,121.678,1.4Zm.45,5.04a.554.554,0,0,0-.522-.522.59.59,0,0,0-.432.252,16.479,16.479,0,0,1-5.85,4.266c-.216.09-.36.18-.36.414a.574.574,0,0,0,.486.594A14.156,14.156,0,0,0,119.1,9.394,9.972,9.972,0,0,0,122.128,6.442Zm.666,5.13a.547.547,0,0,0-.54-.486c-.18,0-.288.108-.432.324a13.134,13.134,0,0,1-6.552,4.932c-.18.072-.414.162-.414.432,0,.18.162.612.522.612a9,9,0,0,0,2.178-.918,15.934,15.934,0,0,0,5.094-4.5A.633.633,0,0,0,122.794,11.572Z" transform="translate(837 3194)"/><path class="a" d="M23.5,0A23.5,23.5,0,1,1,0,23.5,23.5,23.5,0,0,1,23.5,0Z" transform="translate(915 3229)"/></g></svg>