<svg xmlns="http://www.w3.org/2000/svg" width="68.76" height="81.282" viewBox="0 0 68.76 81.282"><defs><style>.a{fill:#e7e7e7;}</style></defs><g transform="translate(-1253 -3194.718)"><path d="M68.56,2.284a.458.458,0,0,0-.54.486.458.458,0,0,0,.54.486H82.366a.446.446,0,0,0,.522-.486.452.452,0,0,0-.522-.486Zm.9,6.264a.446.446,0,0,0-.522.486.446.446,0,0,0,.522.486H81.43c.162,0,.54,0,.54-.486a.458.458,0,0,0-.54-.486Zm-1.836,6.678c-.162.018-.54.018-.54.5s.378.486.54.486h15.57a.446.446,0,0,0,.522-.486.467.467,0,0,0-.522-.5ZM99.538,2.068c.414-.486.558-.684.558-.918,0-.324-.36-.432-.558-.432a.614.614,0,0,0-.558.36,13.1,13.1,0,0,1-5.2,4.122c-.252.108-.414.18-.414.45a.509.509,0,0,0,.486.54A12.936,12.936,0,0,0,98.782,2.9h5.112c.144,0,.45,0,.45.306a.836.836,0,0,1-.216.486,16.666,16.666,0,0,1-1.4,1.584H97.108c-1.368,0-1.818.468-1.818,1.818v2.916c0,2.034,0,4.446-1.746,6.408-.144.162-.252.27-.252.45a.629.629,0,0,0,.63.54c.216,0,.324-.09.576-.414a8.446,8.446,0,0,0,1.638-4.122h11.538V15.3c0,.936-.63.936-1.026.936-.342,0-1.98-.036-2.358-.036-.18,0-.558,0-.558.468,0,.234.072.594.54.594h2.322c1.35,0,2.052-.18,2.052-1.818V7.09c0-1.386-.468-1.818-1.8-1.818H104.02a9.022,9.022,0,0,0,1.008-1.116A1.848,1.848,0,0,0,105.5,3.04c0-.972-.864-.972-1.35-.972ZM96.262,9.484h5.112V12H96.208c.054-.72.054-1.278.054-1.8Zm6.048,0h5.364V12H102.31Zm-.936-.828H96.262V7.09c0-.648.288-.936.936-.936h4.176Zm5.364-2.5c.666,0,.936.306.936.936V8.656H102.31v-2.5ZM127.06,2.32h1.206c.216,0,.522-.036.522-.486s-.342-.468-.522-.468H120.2a.449.449,0,0,0-.522.486c0,.468.378.468.522.468h1.422v5H119.9c-.144,0-.522,0-.522.468a.447.447,0,0,0,.522.468h1.728v.594c0,3.8-.9,5.9-2.052,7.452a.581.581,0,0,0-.18.4.629.629,0,0,0,.63.576c.306,0,.54-.378.864-.936a14.6,14.6,0,0,0,1.728-7.506V8.26h3.456v8.73c0,.216.018.522.486.522a.448.448,0,0,0,.5-.522V8.26h1.44c.234,0,.522-.054.522-.468,0-.45-.342-.468-.522-.468h-1.44Zm-.99,5h-3.456v-5h3.456ZM134.728,1.4a.576.576,0,0,0-.54-.558c-.2,0-.306.144-.432.288A14.012,14.012,0,0,1,128.788,4.7c-.2.09-.36.162-.36.4a.6.6,0,0,0,.5.594,12.012,12.012,0,0,0,3.2-1.8A10.306,10.306,0,0,0,134.728,1.4Zm.45,5.04a.554.554,0,0,0-.522-.522.59.59,0,0,0-.432.252,16.479,16.479,0,0,1-5.85,4.266c-.216.09-.36.18-.36.414a.574.574,0,0,0,.486.594,14.156,14.156,0,0,0,3.654-2.052A9.972,9.972,0,0,0,135.178,6.442Zm.666,5.13a.547.547,0,0,0-.54-.486c-.18,0-.288.108-.432.324a13.134,13.134,0,0,1-6.552,4.932c-.18.072-.414.162-.414.432,0,.18.162.612.522.612a9,9,0,0,0,2.178-.918,15.934,15.934,0,0,0,5.094-4.5A.633.633,0,0,0,135.844,11.572Z" transform="translate(1185.916 3194)"/><path class="a" d="M26.5,0,53,47H0Z" transform="translate(1314 3276) rotate(180)"/></g></svg>