<svg xmlns="http://www.w3.org/2000/svg" width="42.804" height="81.156" viewBox="0 0 42.804 81.156"><defs><style>.a{fill:#918235;}</style></defs><g transform="translate(-742 -3194.844)"><path d="M87.748,4.174a.5.5,0,1,0-1.008,0V9.3a10.641,10.641,0,0,1-.216,2.5,38.3,38.3,0,0,1-4.212.936V4.156c0-1.008.216-1.044,1.44-1.224.9-.144,2.412-.468,3.6-.792.774-.2,1.026-.27,1.026-.63a.565.565,0,0,0-.5-.576c-.144,0-1.062.324-1.26.378a25.613,25.613,0,0,1-3.726.774C81.376,2.338,81.34,3,81.34,4.1v8.8c-.162.036-.864.126-1.008.162a.42.42,0,0,0-.342.468.485.485,0,0,0,.486.522,45.393,45.393,0,0,0,5.742-1.224c-.972,2.232-3.438,3.114-4.932,3.474-.234.054-.486.126-.486.432,0,.216.18.594.5.594a9.51,9.51,0,0,0,3.618-1.494c2.052-1.35,2.826-3.258,2.826-6.552Zm1.71,12.852c0,.216.036.5.5.5.486,0,.5-.306.5-.5V3.76c0-.63.288-.954.936-.954H94.21a.828.828,0,0,1,.936.954v9.126c0,.63-.414.684-.756.684-.288,0-1.674-.036-1.98-.036-.2,0-.522,0-.522.45,0,.576.468.576.774.576a11.259,11.259,0,0,0,2.79-.09c.648-.216.684-.9.684-1.368V3.724c0-1.368-.486-1.8-1.8-1.8h-3.06c-1.368,0-1.818.468-1.818,1.8Zm2.61-11.9c-.144,0-.486.108-.486.414,0,.09.27.756.414,1.134.324.792.666,1.656.9,2.43.288.99.306,1.062.612,1.062.162,0,.54-.09.54-.45A15.887,15.887,0,0,0,92.86,6.244C92.428,5.2,92.32,5.128,92.068,5.128Zm-8.118.378c-.252,0-.54.144-.54.432a10.708,10.708,0,0,0,.36,1.026,18.289,18.289,0,0,1,.864,2.754c.036.162.108.468.468.468.2,0,.594-.108.594-.5A18.671,18.671,0,0,0,84.472,6.1C84.274,5.65,84.22,5.506,83.95,5.506ZM114.01,2.32h1.206c.216,0,.522-.036.522-.486s-.342-.468-.522-.468h-8.064a.449.449,0,0,0-.522.486c0,.468.378.468.522.468h1.422v5h-1.728c-.144,0-.522,0-.522.468a.447.447,0,0,0,.522.468h1.728v.594c0,3.8-.9,5.9-2.052,7.452a.581.581,0,0,0-.18.4.629.629,0,0,0,.63.576c.306,0,.54-.378.864-.936a14.6,14.6,0,0,0,1.728-7.506V8.26h3.456v8.73c0,.216.018.522.486.522a.448.448,0,0,0,.5-.522V8.26h1.44c.234,0,.522-.054.522-.468,0-.45-.342-.468-.522-.468h-1.44Zm-.99,5h-3.456v-5h3.456ZM121.678,1.4a.576.576,0,0,0-.54-.558c-.2,0-.306.144-.432.288A14.012,14.012,0,0,1,115.738,4.7c-.2.09-.36.162-.36.4a.6.6,0,0,0,.5.594,12.012,12.012,0,0,0,3.2-1.8A10.306,10.306,0,0,0,121.678,1.4Zm.45,5.04a.554.554,0,0,0-.522-.522.59.59,0,0,0-.432.252,16.479,16.479,0,0,1-5.85,4.266c-.216.09-.36.18-.36.414a.574.574,0,0,0,.486.594A14.156,14.156,0,0,0,119.1,9.394,9.972,9.972,0,0,0,122.128,6.442Zm.666,5.13a.547.547,0,0,0-.54-.486c-.18,0-.288.108-.432.324a13.134,13.134,0,0,1-6.552,4.932c-.18.072-.414.162-.414.432,0,.18.162.612.522.612a9,9,0,0,0,2.178-.918,15.934,15.934,0,0,0,5.094-4.5A.633.633,0,0,0,122.794,11.572Z" transform="translate(662.01 3194)"/><ellipse class="a" cx="20" cy="23.5" rx="20" ry="23.5" transform="translate(743 3229)"/></g></svg>