<svg xmlns="http://www.w3.org/2000/svg" width="68.058" height="81.282" viewBox="0 0 68.058 81.282"><defs><style>.a{fill:#e7e7e7;}</style></defs><g transform="translate(-1429 -3194.718)"><path d="M83.014,3.976c0-1.71-.594-2.268-2.286-2.268H70.072c-1.728,0-2.286.576-2.286,2.268v10.4c0,1.71.594,2.268,2.286,2.268H80.728c1.728,0,2.286-.594,2.286-2.268Zm-10.62,2.88c0,3.06-1.332,4.482-2.682,5.274-.2.108-.342.216-.342.45a.575.575,0,0,0,.54.594c.648,0,3.474-2.16,3.474-6.246V2.644h3.132v8.01c0,1.206.432,1.494,1.548,1.494.342,0,2.052,0,2.214-.054.612-.2.99-.918.99-2.592a.478.478,0,0,0-.522-.54c-.45,0-.45.216-.486.972-.036.9-.162,1.242-.594,1.242-.468,0-1.26,0-1.566-.018-.45-.018-.612-.288-.612-.684V2.644h3.258c.9,0,1.242.45,1.242,1.26v10.53c0,.828-.36,1.26-1.242,1.26H70.054c-.9,0-1.242-.432-1.242-1.26V3.9c0-.828.36-1.26,1.242-1.26h2.34ZM99.538,2.068c.414-.486.558-.684.558-.918,0-.324-.36-.432-.558-.432a.614.614,0,0,0-.558.36,13.1,13.1,0,0,1-5.2,4.122c-.252.108-.414.18-.414.45a.509.509,0,0,0,.486.54A12.936,12.936,0,0,0,98.782,2.9h5.112c.144,0,.45,0,.45.306a.836.836,0,0,1-.216.486,16.666,16.666,0,0,1-1.4,1.584H97.108c-1.368,0-1.818.468-1.818,1.818v2.916c0,2.034,0,4.446-1.746,6.408-.144.162-.252.27-.252.45a.629.629,0,0,0,.63.54c.216,0,.324-.09.576-.414a8.446,8.446,0,0,0,1.638-4.122h11.538V15.3c0,.936-.63.936-1.026.936-.342,0-1.98-.036-2.358-.036-.18,0-.558,0-.558.468,0,.234.072.594.54.594h2.322c1.35,0,2.052-.18,2.052-1.818V7.09c0-1.386-.468-1.818-1.8-1.818H104.02a9.022,9.022,0,0,0,1.008-1.116A1.848,1.848,0,0,0,105.5,3.04c0-.972-.864-.972-1.35-.972ZM96.262,9.484h5.112V12H96.208c.054-.72.054-1.278.054-1.8Zm6.048,0h5.364V12H102.31Zm-.936-.828H96.262V7.09c0-.648.288-.936.936-.936h4.176Zm5.364-2.5c.666,0,.936.306.936.936V8.656H102.31v-2.5ZM127.06,2.32h1.206c.216,0,.522-.036.522-.486s-.342-.468-.522-.468H120.2a.449.449,0,0,0-.522.486c0,.468.378.468.522.468h1.422v5H119.9c-.144,0-.522,0-.522.468a.447.447,0,0,0,.522.468h1.728v.594c0,3.8-.9,5.9-2.052,7.452a.581.581,0,0,0-.18.4.629.629,0,0,0,.63.576c.306,0,.54-.378.864-.936a14.6,14.6,0,0,0,1.728-7.506V8.26h3.456v8.73c0,.216.018.522.486.522a.448.448,0,0,0,.5-.522V8.26h1.44c.234,0,.522-.054.522-.468,0-.45-.342-.468-.522-.468h-1.44Zm-.99,5h-3.456v-5h3.456ZM134.728,1.4a.576.576,0,0,0-.54-.558c-.2,0-.306.144-.432.288A14.012,14.012,0,0,1,128.788,4.7c-.2.09-.36.162-.36.4a.6.6,0,0,0,.5.594,12.012,12.012,0,0,0,3.2-1.8A10.306,10.306,0,0,0,134.728,1.4Zm.45,5.04a.554.554,0,0,0-.522-.522.59.59,0,0,0-.432.252,16.479,16.479,0,0,1-5.85,4.266c-.216.09-.36.18-.36.414a.574.574,0,0,0,.486.594,14.156,14.156,0,0,0,3.654-2.052A9.972,9.972,0,0,0,135.178,6.442Zm.666,5.13a.547.547,0,0,0-.54-.486c-.18,0-.288.108-.432.324a13.134,13.134,0,0,1-6.552,4.932c-.18.072-.414.162-.414.432,0,.18.162.612.522.612a9,9,0,0,0,2.178-.918,15.934,15.934,0,0,0,5.094-4.5A.633.633,0,0,0,135.844,11.572Z" transform="translate(1361.214 3194)"/><path class="a" d="M0,0H47V47H0Z" transform="translate(1439 3229)"/></g></svg>