<svg xmlns="http://www.w3.org/2000/svg" width="42.93" height="80.472" viewBox="0 0 42.93 80.472"><defs><style>.a{fill:#918235;}</style></defs><g transform="translate(-1089 -3195.528)"><path d="M88.342,5.254c.414-1.152.522-1.494.864-2.7h7.2a.435.435,0,0,0,.5-.45.431.431,0,0,0-.5-.432H80.512c-.126,0-.522,0-.522.432a.442.442,0,0,0,.522.45H88.18a19.715,19.715,0,0,1-.81,2.7H82.654c-1.35,0-1.818.468-1.818,1.818v8.244c0,1.368.5,1.8,1.818,1.8H94.21c1.368,0,1.818-.468,1.818-1.8V7.072c0-1.386-.486-1.818-1.818-1.818Zm-3.4,10.962H82.762c-.648,0-.936-.324-.936-.954V7.072c0-.648.288-.936.936-.936H84.94Zm.954-7.362V6.136H91.06V8.854Zm0,3.618V9.7H91.06v2.772Zm5.166,3.744H85.894v-2.88H91.06ZM94.1,6.136c.666,0,.936.306.936.936v8.19c0,.648-.288.954-.936.954h-2.07V6.136Zm18.612,3.87A11.215,11.215,0,0,0,117.9,15.46a19.775,19.775,0,0,0,4.41,1.782.561.561,0,0,0,.54-.576c0-.342-.252-.414-.54-.486a19.714,19.714,0,0,1-5.328-2.448,28.445,28.445,0,0,0,2.988-2.07c.72-.558.774-.666.774-.864a.6.6,0,0,0-.558-.522c-.162,0-.18.018-.7.468a28.127,28.127,0,0,1-3.294,2.394,8.08,8.08,0,0,1-2.376-3.132h8.6c.216,0,.5-.036.5-.432,0-.432-.324-.45-.5-.45h-12.69V7.288h10.548c.4,0,.5-.234.5-.432,0-.4-.414-.4-.576-.4H109.726V4.876h10.53c.414,0,.5-.216.5-.432,0-.162-.054-.414-.5-.414h-10.53V3.346a.823.823,0,0,1,.936-.936h10.17c.126,0,.522,0,.522-.432a.442.442,0,0,0-.522-.45H110.518c-1.368,0-1.818.468-1.818,1.818V9.124h-2c-.18,0-.522.018-.522.45s.4.432.522.432h2v6.066c-.324.036-1.746.108-2,.144a.385.385,0,0,0-.36.414c0,.072,0,.558.486.558a64.688,64.688,0,0,0,7.974-.918c.846-.144,1.008-.18,1.008-.63a.347.347,0,0,0-.342-.4c-.108,0-1.26.2-1.494.234-1.4.216-2.826.36-4.248.5V10.006Z" transform="translate(1009.01 3194)"/><path class="a" d="M16,0c8.837,0,16,10.521,16,23.5S24.837,47,16,47,0,36.479,0,23.5,7.163,0,16,0Z" transform="translate(1094 3229)"/></g></svg>